<?xml version="1.0" encoding="utf-8"?>
<!-- Generator: Adobe Illustrator 16.0.0, SVG Export Plug-In . SVG Version: 6.00 Build 0)  -->
<!DOCTYPE svg PUBLIC "-//W3C//DTD SVG 1.1//EN" "http://www.w3.org/Graphics/SVG/1.1/DTD/svg11.dtd">
<svg version="1.1" id="Layer_1" xmlns="http://www.w3.org/2000/svg" xmlns:xlink="http://www.w3.org/1999/xlink" x="0px" y="0px"
	 width="256px" height="256px" viewBox="0 0 256 256" enable-background="new 0 0 256 256" xml:space="preserve">
<g>
	<g>
		<path fill="#FFFFFF" d="M86.372,206.097c0.431,2.789,1.052,6.464,1.897,10.588h81.032c0.845-4.124,1.467-7.799,1.897-10.588
			H86.372z"/>
		<polygon fill="#FFFFFF" points="128.785,189.88 79.468,189.88 79.468,200.87 85.634,200.87 171.937,200.87 178.102,200.87 
			178.102,189.88 		"/>
		<path fill="#FFFFFF" d="M92.698,233.706h72.174c1.193-3.587,2.215-7.344,3.088-10.987H89.61
			C90.483,226.362,91.504,230.119,92.698,233.706z"/>
		<path fill="#FFFFFF" d="M94.56,238.801c3.349,8.267,7.733,14.605,13.318,14.605c16.082,0,20.907,0,20.907,0s4.825,0,20.907,0
			c5.585,0,9.97-6.339,13.318-14.605H94.56z"/>
	</g>
	<path fill="#FFFFFF" d="M74.778,141.568c0,0,18.896,5.829,17.288,36.787c0,0,2.814,4.222,7.639,4.222
		c4.825,0,6.333-2.513,6.533-6.734c0.201-4.222,0.572-26.435-14.037-40.371l97.362-27.475c0,0,8.239-1.742,5.293-10.051
		s-12.737-3.352-16.755-2.279C174.085,96.74,64.055,126.76,64.055,126.76s-4.755,3.048-3.248,9.481
		C62.315,142.674,67.039,141.065,74.778,141.568z"/>
	<path fill="#FFFFFF" d="M195.494,133.059c0,0,1.372-7.236-10.287-6.03s-26.799,8.71-30.688,20.64
		c-3.889,11.926-6.967,20.771-5.629,27.606c1.338,6.834,12.728,9.111,15.008,0.669c0,0,1.209-20.907,6.301-26.938
		s16.349-8.041,20.369-8.443C194.589,140.161,195.494,133.059,195.494,133.059z"/>
	<path fill="#FFFFFF" d="M63.653,94.596l120.216-33.101c0,0,7.236-1.071,9.247,1.206c2.01,2.277,6.03,10.318-4.825,13.132
		c-10.854,2.814-118.337,32.299-118.337,32.299s-7.036,2.076-8.945-3.251S61.175,96.271,63.653,94.596z"/>
	<path fill="#FFFFFF" d="M61.812,71.209c0,0,1.91,5.629,6.936,4.825s120.615-32.566,120.615-32.566s7.84-1.407,6.132-8.644
		c-1.709-7.237-6.333-7.438-14.173-5.227c-7.84,2.211-112.574,30.756-112.574,30.756S58.797,61.243,61.812,71.209z"/>
	<path fill="#FFFFFF" d="M93.436,36.605l75.221-21.28c0,0,5.025-2.312,2.814-8.242c-2.212-5.93-9.851-4.724-15.278-3.417
		S89.855,22.26,88.046,22.763s-5.93,4.523-3.016,9.448C87.945,37.136,93.436,36.605,93.436,36.605z"/>
</g>
</svg>
