<?xml version="1.0" encoding="utf-8"?>
<!-- Generator: Adobe Illustrator 16.0.0, SVG Export Plug-In . SVG Version: 6.00 Build 0)  -->
<!DOCTYPE svg PUBLIC "-//W3C//DTD SVG 1.1//EN" "http://www.w3.org/Graphics/SVG/1.1/DTD/svg11.dtd">
<svg version="1.1" id="Layer_1" xmlns="http://www.w3.org/2000/svg" xmlns:xlink="http://www.w3.org/1999/xlink" x="0px" y="0px"
	 width="135.582px" height="256px" viewBox="0 0 135.582 256" enable-background="new 0 0 135.582 256" xml:space="preserve">
<g>
	<path fill="#F5B4A5" d="M125.14,1.016c-9.574,0-10.437,10.437-10.437,10.437v48.427c0,0,1.831,10.116,10.437,10.116
		c8.611,0,10.442-10.116,10.442-10.116V11.452C135.582,11.452,134.72,1.016,125.14,1.016z"/>
	<path fill="#F5B4A5" d="M125.14,186.002c-9.574,0-10.437,10.441-10.437,10.441v48.427c0,0,1.831,10.114,10.437,10.114
		c8.611,0,10.442-10.114,10.442-10.114v-48.427C135.582,196.443,134.72,186.002,125.14,186.002z"/>
	<path fill="#F5B4A5" d="M61.454,17.165c-8.14,5.045-3.377,14.374-3.377,14.374l25.507,41.157c0,0,6.891,7.638,14.205,3.105
		c7.314-4.54,3.546-14.102,3.546-14.102L75.826,20.535C75.826,20.535,69.594,12.123,61.454,17.165z"/>
	<path fill="#F5B4A5" d="M14.96,62.593c-5.118,8.091,3.241,14.404,3.241,14.404l40.925,25.878c0,0,9.532,3.864,14.132-3.41
		c4.596-7.281-2.971-14.235-2.971-14.235L29.356,59.344C29.356,59.344,20.077,54.499,14.96,62.593z"/>
	<path fill="#F5B4A5" d="M0,127.666c0,9.576,10.438,10.439,10.438,10.439h48.426c0,0,10.117-1.832,10.117-10.439
		c0-8.608-10.117-10.439-10.117-10.439H10.438C10.438,117.227,0,118.089,0,127.666z"/>
	<path fill="#F5B4A5" d="M16.15,191.354c5.045,8.137,14.374,3.375,14.374,3.375l41.157-25.505c0,0,7.635-6.891,3.105-14.205
		c-4.54-7.314-14.102-3.546-14.102-3.546l-41.166,25.51C19.52,176.982,11.108,183.218,16.15,191.354z"/>
	<path fill="#F5B4A5" d="M61.578,237.849c8.091,5.115,14.404-3.238,14.404-3.238l25.878-40.931c0,0,3.863-9.529-3.41-14.13
		c-7.279-4.596-14.235,2.972-14.235,2.972l-25.886,40.93C58.329,223.451,53.484,232.733,61.578,237.849z"/>
</g>
</svg>
