<?xml version="1.0" encoding="utf-8"?>
<!-- Generator: Adobe Illustrator 16.0.0, SVG Export Plug-In . SVG Version: 6.00 Build 0)  -->
<!DOCTYPE svg PUBLIC "-//W3C//DTD SVG 1.1//EN" "http://www.w3.org/Graphics/SVG/1.1/DTD/svg11.dtd">
<svg version="1.1" id="Layer_1" focusable="false" xmlns="http://www.w3.org/2000/svg" xmlns:xlink="http://www.w3.org/1999/xlink"
	 x="0px" y="0px" width="256px" height="256px" viewBox="0 0 256 256" enable-background="new 0 0 256 256" xml:space="preserve">
<path fill="#FFFFFF" d="M229.686,75.858c0.162,2.274,0.162,4.548,0.162,6.823c0,69.36-52.791,149.278-149.279,149.278
	c-29.726,0-57.34-8.609-80.568-23.553c4.224,0.487,8.284,0.65,12.67,0.65c24.527,0,47.106-8.285,65.137-22.416
	c-23.066-0.488-42.396-15.595-49.056-36.387c3.249,0.487,6.498,0.813,9.909,0.813c4.71,0,9.421-0.65,13.807-1.787
	c-24.041-4.873-42.071-25.99-42.071-51.492v-0.649c6.984,3.898,15.107,6.335,23.715,6.659c-14.132-9.421-23.39-25.502-23.39-43.695
	c0-9.746,2.598-18.68,7.147-26.477c25.827,31.837,64.65,52.629,108.182,54.903c-0.812-3.898-1.299-7.959-1.299-12.02
	c0-28.914,23.391-52.467,52.466-52.467c15.107,0,28.752,6.335,38.336,16.568c11.857-2.274,23.228-6.66,33.299-12.67
	c-3.898,12.183-12.183,22.417-23.065,28.914c10.559-1.137,20.792-4.061,30.213-8.122C248.854,59.127,239.918,68.386,229.686,75.858
	L229.686,75.858z"/>
</svg>
