<?xml version="1.0" encoding="utf-8"?>
<!-- Generator: Adobe Illustrator 16.0.0, SVG Export Plug-In . SVG Version: 6.00 Build 0)  -->
<!DOCTYPE svg PUBLIC "-//W3C//DTD SVG 1.1//EN" "http://www.w3.org/Graphics/SVG/1.1/DTD/svg11.dtd">
<svg version="1.1" id="Layer_1" xmlns="http://www.w3.org/2000/svg" xmlns:xlink="http://www.w3.org/1999/xlink" x="0px" y="0px"
	 width="512px" height="512px" viewBox="0 0 512 512" enable-background="new 0 0 512 512" xml:space="preserve">
<circle fill="#FBB82F" cx="116.736" cy="229.89" r="76.982"/>
<path fill="#F0664A" d="M117.063,229.89l-74.861,19.333c8.578,33.159,38.695,57.649,74.534,57.649
	c7.395,0,14.538-1.064,21.312-3.013L117.063,229.89z"/>
<path fill="#8EC342" d="M191.443,248.473c1.477-5.953,2.274-12.173,2.274-18.583c0-42.516-34.466-76.981-76.981-76.981
	c-36.082,0-66.354,24.826-74.692,58.324L191.443,248.473z"/>
<circle fill="#F0664A" cx="397.187" cy="229.89" r="76.982"/>
<path fill="#FBB82F" d="M397.519,229.89l-74.861,19.333c8.574,33.159,38.691,57.649,74.529,57.649
	c7.398,0,14.542-1.064,21.313-3.013L397.519,229.89z"/>
<path fill="#8EC342" d="M471.897,248.473c1.477-5.953,2.271-12.173,2.271-18.583c0-42.516-34.467-76.981-76.982-76.981
	c-36.077,0-66.349,24.826-74.691,58.324L471.897,248.473z"/>
<g>
	<path fill="#FFFFFF" d="M54.795,228.974c0,1.486-0.438,2.635-1.315,3.445c-0.877,0.81-2.122,1.215-3.736,1.215h-1.01v4.414h-3.595
		v-13.306h4.605c1.681,0,2.943,0.367,3.786,1.102C54.373,226.577,54.795,227.621,54.795,228.974z M48.733,230.703h0.656
		c0.54,0,0.969-0.151,1.288-0.455c0.318-0.303,0.478-0.722,0.478-1.256c0-0.898-0.498-1.347-1.493-1.347h-0.929V230.703z"/>
	<path fill="#FFFFFF" d="M56.26,236.537c0-0.558,0.165-0.989,0.496-1.292c0.331-0.303,0.812-0.455,1.442-0.455
		c0.601,0,1.062,0.152,1.383,0.455c0.322,0.304,0.482,0.734,0.482,1.292c0,0.546-0.166,0.972-0.496,1.279
		c-0.331,0.306-0.787,0.459-1.37,0.459c-0.601,0-1.074-0.152-1.42-0.455C56.433,237.517,56.26,237.089,56.26,236.537z"/>
	<path fill="#FFFFFF" d="M68.101,238.047l-2.721-9.583h-0.082c0.127,1.632,0.191,2.9,0.191,3.804v5.779h-3.186v-13.306h4.787
		l2.776,9.447h0.073l2.721-9.447h4.796v13.306h-3.304v-5.834c0-0.303,0.005-0.64,0.014-1.01c0.009-0.37,0.05-1.277,0.123-2.721
		h-0.082l-2.685,9.565H68.101z"/>
	<path fill="#FFFFFF" d="M79.668,236.537c0-0.558,0.165-0.989,0.496-1.292c0.331-0.303,0.812-0.455,1.442-0.455
		c0.601,0,1.062,0.152,1.383,0.455c0.322,0.304,0.482,0.734,0.482,1.292c0,0.546-0.166,0.972-0.496,1.279
		c-0.331,0.306-0.787,0.459-1.37,0.459c-0.601,0-1.074-0.152-1.42-0.455C79.841,237.517,79.668,237.089,79.668,236.537z"/>
</g>
<g>
	<path fill="#FFFFFF" d="M160.854,238.047l-0.655-2.494h-4.323l-0.674,2.494h-3.95l4.341-13.36h4.796l4.396,13.36H160.854z
		 M159.452,232.605l-0.573-2.185c-0.134-0.485-0.296-1.113-0.487-1.884c-0.191-0.771-0.317-1.323-0.377-1.656
		c-0.055,0.309-0.163,0.819-0.323,1.529s-0.517,2.108-1.069,4.196H159.452z"/>
	<path fill="#FFFFFF" d="M165.568,236.537c0-0.558,0.165-0.989,0.496-1.292c0.331-0.303,0.812-0.455,1.442-0.455
		c0.601,0,1.062,0.152,1.383,0.455c0.322,0.304,0.482,0.734,0.482,1.292c0,0.546-0.166,0.972-0.496,1.279
		c-0.331,0.306-0.787,0.459-1.37,0.459c-0.601,0-1.074-0.152-1.42-0.455C165.741,237.517,165.568,237.089,165.568,236.537z"/>
	<path fill="#FFFFFF" d="M177.409,238.047l-2.721-9.583h-0.082c0.127,1.632,0.191,2.9,0.191,3.804v5.779h-3.186v-13.306h4.787
		l2.776,9.447h0.073l2.721-9.447h4.796v13.306h-3.304v-5.834c0-0.303,0.005-0.64,0.014-1.01c0.009-0.37,0.05-1.277,0.123-2.721
		h-0.082l-2.685,9.565H177.409z"/>
	<path fill="#FFFFFF" d="M188.976,236.537c0-0.558,0.165-0.989,0.496-1.292c0.331-0.303,0.812-0.455,1.442-0.455
		c0.601,0,1.062,0.152,1.383,0.455c0.322,0.304,0.482,0.734,0.482,1.292c0,0.546-0.166,0.972-0.496,1.279
		c-0.331,0.306-0.787,0.459-1.37,0.459c-0.601,0-1.074-0.152-1.42-0.455C189.149,237.517,188.976,237.089,188.976,236.537z"/>
</g>
<g>
	<path fill="#FFFFFF" d="M333.752,228.974c0,1.486-0.438,2.635-1.315,3.445s-2.122,1.215-3.736,1.215h-1.01v4.414h-3.596v-13.306
		h4.605c1.681,0,2.943,0.367,3.786,1.102C333.33,226.577,333.752,227.621,333.752,228.974z M327.69,230.703h0.655
		c0.54,0,0.969-0.151,1.287-0.455c0.319-0.303,0.479-0.722,0.479-1.256c0-0.898-0.498-1.347-1.493-1.347h-0.928V230.703z"/>
	<path fill="#FFFFFF" d="M335.217,236.537c0-0.558,0.166-0.989,0.496-1.292c0.331-0.303,0.812-0.455,1.443-0.455
		c0.601,0,1.062,0.152,1.383,0.455c0.321,0.304,0.482,0.734,0.482,1.292c0,0.546-0.165,0.972-0.496,1.279
		c-0.331,0.306-0.787,0.459-1.369,0.459c-0.602,0-1.074-0.152-1.42-0.455S335.217,237.089,335.217,236.537z"/>
	<path fill="#FFFFFF" d="M347.058,238.047l-2.721-9.583h-0.082c0.127,1.632,0.19,2.9,0.19,3.804v5.779h-3.186v-13.306h4.788
		l2.775,9.447h0.073l2.721-9.447h4.797v13.306h-3.304v-5.834c0-0.303,0.004-0.64,0.014-1.01c0.009-0.37,0.05-1.277,0.122-2.721
		h-0.081l-2.686,9.565H347.058z"/>
	<path fill="#FFFFFF" d="M358.625,236.537c0-0.558,0.166-0.989,0.496-1.292c0.331-0.303,0.812-0.455,1.443-0.455
		c0.601,0,1.062,0.152,1.383,0.455c0.321,0.304,0.482,0.734,0.482,1.292c0,0.546-0.165,0.972-0.496,1.279
		c-0.331,0.306-0.787,0.459-1.369,0.459c-0.602,0-1.074-0.152-1.42-0.455S358.625,237.089,358.625,236.537z"/>
</g>
<g>
	<path fill="#FFFFFF" d="M439.81,238.047l-0.655-2.494h-4.323l-0.673,2.494h-3.95l4.341-13.36h4.797l4.396,13.36H439.81z
		 M438.408,232.605l-0.573-2.185c-0.134-0.485-0.296-1.113-0.487-1.884c-0.19-0.771-0.317-1.323-0.378-1.656
		c-0.054,0.309-0.162,0.819-0.322,1.529c-0.161,0.71-0.518,2.108-1.069,4.196H438.408z"/>
	<path fill="#FFFFFF" d="M444.523,236.537c0-0.558,0.166-0.989,0.496-1.292c0.331-0.303,0.812-0.455,1.443-0.455
		c0.601,0,1.062,0.152,1.383,0.455c0.321,0.304,0.482,0.734,0.482,1.292c0,0.546-0.165,0.972-0.496,1.279
		c-0.331,0.306-0.787,0.459-1.369,0.459c-0.602,0-1.074-0.152-1.42-0.455S444.523,237.089,444.523,236.537z"/>
	<path fill="#FFFFFF" d="M456.364,238.047l-2.721-9.583h-0.082c0.127,1.632,0.19,2.9,0.19,3.804v5.779h-3.186v-13.306h4.788
		l2.775,9.447h0.073l2.721-9.447h4.797v13.306h-3.304v-5.834c0-0.303,0.004-0.64,0.014-1.01c0.009-0.37,0.05-1.277,0.122-2.721
		h-0.081l-2.686,9.565H456.364z"/>
	<path fill="#FFFFFF" d="M467.932,236.537c0-0.558,0.166-0.989,0.496-1.292c0.331-0.303,0.812-0.455,1.443-0.455
		c0.601,0,1.062,0.152,1.383,0.455c0.321,0.304,0.482,0.734,0.482,1.292c0,0.546-0.165,0.972-0.496,1.279
		c-0.331,0.306-0.787,0.459-1.369,0.459c-0.602,0-1.074-0.152-1.42-0.455S467.932,237.089,467.932,236.537z"/>
</g>
<g>
	<path fill="#818286" d="M141.171,155.128h-2.185v-4.216c0-0.512,0.011-0.98,0.033-1.405c-0.134,0.164-0.301,0.334-0.501,0.512
		l-0.904,0.746l-1.117-1.373l2.734-2.228h1.939V155.128z"/>
</g>
<g>
	<path fill="#818286" d="M161.273,163.148h-5.779v-1.417l1.944-1.966c0.556-0.581,0.919-0.978,1.089-1.19
		c0.171-0.212,0.29-0.395,0.357-0.548c0.067-0.152,0.101-0.312,0.101-0.479c0-0.207-0.067-0.371-0.201-0.49
		c-0.135-0.12-0.323-0.18-0.567-0.18c-0.25,0-0.503,0.072-0.76,0.215c-0.256,0.144-0.545,0.355-0.869,0.635l-1.182-1.384
		c0.41-0.367,0.755-0.629,1.035-0.787c0.279-0.158,0.583-0.278,0.912-0.362c0.329-0.083,0.698-0.125,1.108-0.125
		c0.516,0,0.976,0.091,1.381,0.272c0.405,0.182,0.719,0.44,0.942,0.776c0.224,0.336,0.335,0.713,0.335,1.13
		c0,0.313-0.039,0.601-0.117,0.866s-0.199,0.526-0.362,0.782c-0.164,0.256-0.38,0.525-0.651,0.809
		c-0.271,0.284-0.847,0.821-1.729,1.613v0.054h3.012V163.148z"/>
</g>
<g>
	<path fill="#818286" d="M179.511,170.358c0,0.494-0.15,0.917-0.452,1.271c-0.301,0.354-0.737,0.611-1.307,0.771v0.033
		c1.329,0.167,1.994,0.795,1.994,1.885c0,0.741-0.293,1.324-0.88,1.749s-1.401,0.637-2.443,0.637c-0.429,0-0.825-0.031-1.19-0.093
		c-0.365-0.062-0.76-0.174-1.185-0.337v-1.787c0.349,0.178,0.704,0.31,1.065,0.395c0.361,0.085,0.694,0.128,1,0.128
		c0.472,0,0.816-0.066,1.032-0.199c0.216-0.132,0.324-0.34,0.324-0.624c0-0.218-0.057-0.386-0.169-0.504
		c-0.113-0.118-0.294-0.207-0.545-0.267c-0.25-0.06-0.577-0.09-0.98-0.09h-0.49v-1.618h0.501c1.093,0,1.64-0.279,1.64-0.839
		c0-0.21-0.081-0.367-0.243-0.468s-0.378-0.153-0.651-0.153c-0.508,0-1.035,0.171-1.58,0.512l-0.894-1.438
		c0.421-0.291,0.853-0.498,1.294-0.621c0.441-0.124,0.947-0.185,1.517-0.185c0.824,0,1.471,0.164,1.939,0.49
		C179.277,169.334,179.511,169.785,179.511,170.358z"/>
</g>
<g>
	<path fill="#818286" d="M192.988,192.695h-0.877v1.542h-2.125v-1.542h-3.176v-1.58l3.312-4.843h1.988v4.815h0.877V192.695z
		 M189.986,191.088v-0.926c0-0.174,0.006-0.409,0.019-0.705s0.023-0.451,0.03-0.466h-0.06c-0.124,0.28-0.263,0.541-0.419,0.784
		l-0.882,1.313H189.986z"/>
</g>
<g>
	<path fill="#818286" d="M196.652,208.264c0.458,0,0.871,0.106,1.239,0.318c0.369,0.212,0.656,0.513,0.861,0.902
		s0.308,0.837,0.308,1.345c0,0.89-0.268,1.572-0.803,2.048c-0.536,0.476-1.347,0.713-2.432,0.713c-0.93,0-1.689-0.144-2.277-0.43
		v-1.765c0.316,0.146,0.672,0.265,1.07,0.36c0.397,0.094,0.74,0.142,1.027,0.142c0.399,0,0.706-0.084,0.92-0.253
		s0.321-0.418,0.321-0.749c0-0.305-0.109-0.543-0.327-0.713c-0.218-0.171-0.548-0.256-0.992-0.256c-0.337,0-0.703,0.063-1.095,0.191
		l-0.79-0.393l0.299-4.205h4.543v1.792h-2.713l-0.098,1.051c0.283-0.054,0.485-0.084,0.604-0.09
		C196.44,208.267,196.551,208.264,196.652,208.264z"/>
</g>
<g>
	<path fill="#818286" d="M198.352,233.309c0-1.111,0.159-2.011,0.477-2.699s0.786-1.196,1.405-1.522s1.383-0.49,2.291-0.49
		c0.323,0,0.701,0.031,1.133,0.093v1.683c-0.363-0.069-0.757-0.104-1.182-0.104c-0.719,0-1.255,0.158-1.607,0.474
		c-0.353,0.316-0.545,0.832-0.578,1.547h0.065c0.327-0.618,0.852-0.926,1.574-0.926c0.708,0,1.257,0.228,1.648,0.684
		c0.39,0.456,0.585,1.09,0.585,1.904c0,0.875-0.247,1.566-0.741,2.073c-0.494,0.506-1.184,0.76-2.07,0.76
		c-0.941,0-1.676-0.305-2.206-0.915C198.617,235.258,198.352,234.405,198.352,233.309z M201.304,235.079
		c0.229,0,0.415-0.086,0.559-0.259c0.144-0.172,0.215-0.447,0.215-0.825c0-0.646-0.251-0.969-0.752-0.969
		c-0.247,0-0.448,0.083-0.602,0.25s-0.231,0.37-0.231,0.61c0,0.349,0.075,0.635,0.224,0.858
		C200.864,234.967,201.061,235.079,201.304,235.079z"/>
</g>
<g>
	<path fill="#FBB82F" d="M197.436,256.938l3.455-7.797h-4.356v-2.25h7.26v1.604l-3.544,8.444H197.436z"/>
</g>
<g>
	<path fill="#818286" d="M189.91,266.348c0.839,0,1.492,0.169,1.958,0.507c0.466,0.338,0.7,0.816,0.7,1.438
		c0,0.422-0.11,0.791-0.33,1.108c-0.22,0.318-0.567,0.595-1.043,0.831c0.588,0.334,1.003,0.667,1.245,1
		c0.242,0.332,0.362,0.69,0.362,1.075c0,0.708-0.256,1.257-0.768,1.646s-1.228,0.583-2.146,0.583c-0.937,0-1.654-0.19-2.152-0.569
		c-0.498-0.38-0.746-0.926-0.746-1.638c0-0.461,0.11-0.854,0.332-1.179s0.594-0.62,1.117-0.886
		c-0.421-0.283-0.729-0.587-0.923-0.912s-0.292-0.682-0.292-1.07c0-0.61,0.238-1.085,0.714-1.425
		C188.414,266.518,189.071,266.348,189.91,266.348z M188.962,272.241c0,0.226,0.08,0.406,0.24,0.542
		c0.16,0.137,0.381,0.204,0.665,0.204c0.639,0,0.958-0.233,0.958-0.702c0-0.178-0.07-0.354-0.209-0.525
		c-0.14-0.173-0.39-0.366-0.749-0.58c-0.323,0.17-0.555,0.342-0.694,0.515C189.032,271.866,188.962,272.049,188.962,272.241z
		 M189.899,267.9c-0.185,0-0.341,0.054-0.469,0.16c-0.127,0.107-0.19,0.246-0.19,0.417c0,0.313,0.212,0.588,0.637,0.828
		c0.258-0.149,0.434-0.285,0.528-0.409c0.095-0.123,0.142-0.263,0.142-0.419c0-0.175-0.063-0.314-0.19-0.42
		C190.229,267.953,190.077,267.9,189.899,267.9z"/>
</g>
<g>
	<path fill="#818286" d="M179.838,288.365c0,1.558-0.336,2.686-1.008,3.383s-1.747,1.046-3.225,1.046
		c-0.486,0-0.857-0.019-1.111-0.055v-1.705c0.312,0.058,0.625,0.087,0.937,0.087c0.77,0,1.364-0.158,1.781-0.477
		c0.418-0.317,0.645-0.819,0.681-1.506h-0.065c-0.142,0.262-0.281,0.45-0.419,0.566s-0.307,0.205-0.506,0.267
		c-0.2,0.062-0.449,0.093-0.747,0.093c-0.69,0-1.229-0.23-1.618-0.691c-0.389-0.462-0.583-1.097-0.583-1.907
		c0-0.882,0.251-1.574,0.754-2.075s1.192-0.752,2.067-0.752c0.973,0,1.727,0.323,2.261,0.97
		C179.571,286.255,179.838,287.174,179.838,288.365z M176.837,286.36c-0.236,0-0.428,0.085-0.575,0.256s-0.221,0.445-0.221,0.822
		c0,0.298,0.063,0.535,0.19,0.711c0.127,0.177,0.322,0.265,0.583,0.265c0.236,0,0.441-0.085,0.616-0.256s0.261-0.376,0.261-0.616
		c0-0.322-0.081-0.601-0.242-0.833S177.083,286.36,176.837,286.36z"/>
</g>
<g>
	<path fill="#818286" d="M160.293,305.268h-2.185v-4.216c0-0.513,0.011-0.98,0.033-1.405c-0.134,0.163-0.301,0.334-0.501,0.512
		l-0.904,0.746l-1.117-1.373l2.734-2.228h1.939V305.268z"/>
	<path fill="#818286" d="M167.843,301.297c0,1.409-0.236,2.441-0.708,3.097c-0.472,0.655-1.195,0.983-2.168,0.983
		c-0.952,0-1.669-0.343-2.152-1.027s-0.725-1.702-0.725-3.053c0-1.417,0.236-2.455,0.708-3.116c0.472-0.661,1.195-0.991,2.168-0.991
		c0.948,0,1.664,0.344,2.149,1.032C167.6,298.91,167.843,299.935,167.843,301.297z M164.231,301.297c0,0.9,0.057,1.52,0.169,1.857
		c0.113,0.338,0.302,0.507,0.567,0.507c0.269,0,0.458-0.175,0.569-0.523s0.167-0.962,0.167-1.841c0-0.883-0.057-1.501-0.169-1.855
		c-0.113-0.354-0.302-0.53-0.566-0.53c-0.265,0-0.454,0.17-0.567,0.512C164.288,299.764,164.231,300.389,164.231,301.297z"/>
</g>
<g>
	<path fill="#818286" d="M95.978,313.903h-2.185v-4.216c0-0.513,0.011-0.98,0.033-1.405c-0.134,0.163-0.301,0.334-0.501,0.512
		l-0.904,0.746l-1.117-1.373l2.734-2.228h1.939V313.903z"/>
</g>
<g>
	<path fill="#818286" d="M77.219,305.268H71.44v-1.416l1.944-1.967c0.556-0.581,0.919-0.978,1.089-1.19
		c0.171-0.212,0.29-0.395,0.357-0.547s0.101-0.313,0.101-0.479c0-0.207-0.067-0.37-0.201-0.49c-0.135-0.12-0.323-0.18-0.567-0.18
		c-0.25,0-0.503,0.071-0.76,0.215c-0.256,0.144-0.545,0.355-0.869,0.635l-1.182-1.384c0.41-0.366,0.755-0.629,1.035-0.787
		c0.279-0.158,0.583-0.278,0.912-0.362c0.329-0.083,0.698-0.125,1.108-0.125c0.516,0,0.976,0.091,1.381,0.272
		c0.405,0.182,0.719,0.44,0.942,0.776c0.224,0.336,0.335,0.713,0.335,1.13c0,0.313-0.04,0.602-0.117,0.866
		c-0.078,0.265-0.199,0.525-0.362,0.781c-0.164,0.257-0.38,0.526-0.651,0.81s-0.847,0.82-1.729,1.612v0.055h3.012V305.268z"/>
</g>
<g>
	<path fill="#818286" d="M58.859,284.556c0,0.494-0.15,0.918-0.452,1.272c-0.301,0.354-0.737,0.61-1.307,0.771v0.032
		c1.329,0.168,1.994,0.796,1.994,1.885c0,0.741-0.293,1.324-0.88,1.749s-1.401,0.638-2.443,0.638c-0.429,0-0.825-0.031-1.19-0.093
		c-0.365-0.062-0.76-0.175-1.185-0.338v-1.787c0.349,0.179,0.704,0.31,1.065,0.396c0.361,0.085,0.694,0.128,1,0.128
		c0.472,0,0.816-0.066,1.032-0.199c0.216-0.132,0.324-0.34,0.324-0.623c0-0.219-0.057-0.387-0.169-0.504
		c-0.113-0.118-0.294-0.207-0.545-0.268c-0.25-0.06-0.577-0.09-0.98-0.09h-0.49v-1.617h0.501c1.093,0,1.64-0.28,1.64-0.839
		c0-0.211-0.081-0.367-0.243-0.469s-0.378-0.152-0.651-0.152c-0.508,0-1.035,0.171-1.58,0.512l-0.894-1.438
		c0.421-0.29,0.853-0.497,1.294-0.62c0.441-0.124,0.947-0.186,1.517-0.186c0.824,0,1.471,0.163,1.939,0.49
		C58.625,283.532,58.859,283.982,58.859,284.556z"/>
</g>
<g>
	<path fill="#818286" d="M46.122,272.884h-0.877v1.542h-2.125v-1.542h-3.176v-1.579l3.312-4.843h1.988v4.815h0.877V272.884z
		 M43.121,271.277v-0.926c0-0.175,0.006-0.41,0.019-0.706s0.023-0.451,0.03-0.466h-0.06c-0.124,0.28-0.263,0.542-0.419,0.785
		l-0.882,1.313H43.121z"/>
</g>
<g>
	<path fill="#818286" d="M29.279,232.405c0-1.111,0.159-2.011,0.477-2.699s0.786-1.196,1.405-1.522s1.383-0.49,2.291-0.49
		c0.323,0,0.701,0.031,1.133,0.093v1.683c-0.363-0.069-0.757-0.104-1.182-0.104c-0.719,0-1.255,0.158-1.607,0.474
		c-0.353,0.316-0.545,0.832-0.578,1.547h0.065c0.327-0.618,0.852-0.926,1.574-0.926c0.708,0,1.257,0.228,1.648,0.684
		c0.39,0.456,0.585,1.09,0.585,1.904c0,0.875-0.247,1.566-0.741,2.073c-0.494,0.506-1.184,0.76-2.07,0.76
		c-0.941,0-1.676-0.305-2.206-0.915C29.544,234.355,29.279,233.502,29.279,232.405z M32.231,234.175
		c0.229,0,0.415-0.086,0.559-0.259c0.144-0.172,0.215-0.447,0.215-0.825c0-0.646-0.251-0.969-0.752-0.969
		c-0.247,0-0.448,0.083-0.602,0.25s-0.231,0.37-0.231,0.61c0,0.349,0.075,0.635,0.224,0.858
		C31.792,234.064,31.988,234.175,32.231,234.175z"/>
</g>
<g>
	<path fill="#818286" d="M43.044,186.159c0.839,0,1.492,0.169,1.958,0.506c0.466,0.338,0.7,0.817,0.7,1.438
		c0,0.421-0.11,0.791-0.33,1.108s-0.567,0.595-1.043,0.831c0.588,0.334,1.003,0.667,1.245,1c0.242,0.333,0.362,0.691,0.362,1.076
		c0,0.708-0.256,1.257-0.768,1.645c-0.512,0.389-1.228,0.583-2.146,0.583c-0.937,0-1.654-0.189-2.152-0.569
		c-0.498-0.379-0.746-0.925-0.746-1.637c0-0.461,0.11-0.854,0.332-1.179c0.222-0.325,0.594-0.62,1.117-0.885
		c-0.421-0.283-0.729-0.587-0.923-0.913c-0.194-0.325-0.292-0.682-0.292-1.07c0-0.61,0.238-1.085,0.714-1.424
		C41.548,186.329,42.206,186.159,43.044,186.159z M42.097,192.053c0,0.225,0.08,0.406,0.24,0.542
		c0.16,0.136,0.381,0.204,0.665,0.204c0.639,0,0.958-0.234,0.958-0.703c0-0.178-0.07-0.353-0.209-0.526
		c-0.14-0.172-0.39-0.366-0.749-0.58c-0.323,0.171-0.555,0.342-0.694,0.515C42.167,191.678,42.097,191.86,42.097,192.053z
		 M43.034,187.711c-0.185,0-0.341,0.054-0.469,0.161c-0.127,0.107-0.19,0.246-0.19,0.417c0,0.313,0.212,0.588,0.637,0.828
		c0.258-0.148,0.434-0.285,0.528-0.408c0.095-0.124,0.142-0.263,0.142-0.419c0-0.174-0.063-0.314-0.19-0.419
		C43.364,187.764,43.211,187.711,43.034,187.711z"/>
</g>
<g>
	<path fill="#818286" d="M59.187,170.96c0,1.558-0.336,2.686-1.008,3.383s-1.747,1.046-3.225,1.046
		c-0.486,0-0.857-0.018-1.111-0.054v-1.705c0.312,0.058,0.625,0.087,0.937,0.087c0.77,0,1.364-0.159,1.781-0.477
		c0.418-0.318,0.645-0.82,0.681-1.506h-0.065c-0.142,0.261-0.281,0.45-0.419,0.566s-0.307,0.205-0.506,0.267
		c-0.2,0.062-0.449,0.093-0.747,0.093c-0.69,0-1.229-0.23-1.618-0.692c-0.389-0.461-0.583-1.097-0.583-1.906
		c0-0.883,0.251-1.574,0.754-2.076c0.503-0.501,1.192-0.751,2.067-0.751c0.973,0,1.727,0.323,2.261,0.97
		C58.919,168.85,59.187,169.769,59.187,170.96z M56.185,168.956c-0.236,0-0.428,0.085-0.575,0.256
		c-0.147,0.171-0.221,0.445-0.221,0.823c0,0.298,0.063,0.535,0.19,0.711c0.127,0.176,0.322,0.264,0.583,0.264
		c0.236,0,0.441-0.085,0.616-0.256c0.174-0.17,0.261-0.375,0.261-0.615c0-0.323-0.081-0.601-0.242-0.833
		S56.432,168.956,56.185,168.956z"/>
</g>
<g>
	<path fill="#818286" d="M71.799,161.626h-2.185v-4.216c0-0.512,0.011-0.98,0.033-1.405c-0.134,0.164-0.301,0.334-0.501,0.512
		l-0.904,0.746l-1.117-1.373l2.734-2.228h1.939V161.626z"/>
	<path fill="#818286" d="M79.349,157.655c0,1.409-0.236,2.441-0.708,3.097c-0.472,0.656-1.195,0.983-2.168,0.983
		c-0.952,0-1.669-0.342-2.152-1.027s-0.725-1.702-0.725-3.053c0-1.416,0.236-2.455,0.708-3.116c0.472-0.661,1.195-0.991,2.168-0.991
		c0.948,0,1.664,0.344,2.149,1.032C79.106,155.269,79.349,156.293,79.349,157.655z M75.737,157.655c0,0.901,0.057,1.52,0.169,1.858
		c0.113,0.337,0.302,0.506,0.567,0.506c0.269,0,0.458-0.174,0.569-0.523s0.167-0.962,0.167-1.841c0-0.882-0.057-1.5-0.169-1.854
		c-0.113-0.354-0.302-0.531-0.566-0.531c-0.265,0-0.454,0.171-0.567,0.512C75.794,156.123,75.737,156.748,75.737,157.655z"/>
</g>
<g>
	<path fill="#818286" d="M91.044,155.128h-2.185v-4.216c0-0.512,0.011-0.98,0.033-1.405c-0.134,0.164-0.301,0.334-0.501,0.512
		l-0.904,0.746l-1.117-1.373l2.734-2.228h1.939V155.128z"/>
	<path fill="#818286" d="M97.581,155.128h-2.185v-4.216c0-0.512,0.011-0.98,0.033-1.405c-0.134,0.164-0.301,0.334-0.501,0.512
		l-0.904,0.746l-1.117-1.373l2.734-2.228h1.939V155.128z"/>
</g>
<g>
	<path fill="#FBB82F" d="M144.032,320.429h-3.403v-6.567c0-0.798,0.017-1.527,0.051-2.189c-0.209,0.255-0.47,0.521-0.781,0.798
		l-1.409,1.162l-1.739-2.139l4.259-3.47h3.021V320.429z"/>
	<path fill="#FBB82F" d="M154.215,320.429h-3.403v-6.567c0-0.798,0.017-1.527,0.051-2.189c-0.209,0.255-0.47,0.521-0.781,0.798
		l-1.409,1.162l-1.739-2.139l4.259-3.47h3.021V320.429z"/>
</g>
<g>
	<path fill="#FBB82F" d="M34.532,252.423c0.713,0,1.356,0.166,1.93,0.497c0.574,0.331,1.021,0.799,1.341,1.404
		c0.32,0.605,0.479,1.304,0.479,2.096c0,1.387-0.417,2.45-1.251,3.191c-0.834,0.74-2.098,1.111-3.789,1.111
		c-1.448,0-2.631-0.224-3.547-0.671v-2.749c0.492,0.227,1.048,0.413,1.667,0.561c0.62,0.146,1.153,0.221,1.6,0.221
		c0.622,0,1.1-0.132,1.434-0.396c0.333-0.263,0.5-0.651,0.5-1.167c0-0.475-0.169-0.845-0.509-1.111
		c-0.34-0.266-0.854-0.399-1.544-0.399c-0.526,0-1.095,0.099-1.706,0.297l-1.23-0.611l0.467-6.551h7.077v2.792h-4.226l-0.153,1.638
		c0.441-0.085,0.755-0.132,0.942-0.14S34.374,252.423,34.532,252.423z"/>
</g>
<g>
	<path fill="#FBB82F" d="M31.658,215.316l4.26-9.614h-5.372v-2.775h8.952v1.977l-4.37,10.412H31.658z"/>
</g>
<g>
	<path fill="#818286" d="M89.416,146.206l-1.826-6.431h-0.055c0.085,1.096,0.128,1.946,0.128,2.553v3.878h-2.138v-8.929h3.212
		l1.863,6.339h0.049l1.826-6.339h3.219v8.929h-2.217v-3.915c0-0.204,0.003-0.43,0.009-0.678c0.006-0.248,0.034-0.857,0.083-1.826
		h-0.055l-1.801,6.419H89.416z"/>
	<path fill="#818286" d="M97.618,146.206v-8.929h2.425v8.929H97.618z"/>
	<path fill="#818286" d="M109.551,141.552c0,1.49-0.41,2.638-1.23,3.444s-1.974,1.209-3.46,1.209h-2.889v-8.929h3.09
		c1.433,0,2.54,0.366,3.319,1.099S109.551,140.167,109.551,141.552z M107.047,141.637c0-0.818-0.162-1.425-0.485-1.82
		s-0.815-0.592-1.475-0.592h-0.702v5.001h0.537c0.733,0,1.271-0.212,1.613-0.638C106.876,143.163,107.047,142.513,107.047,141.637z"
		/>
	<path fill="#818286" d="M119.653,146.206h-3.164l-3.261-6.291h-0.055c0.078,0.989,0.116,1.745,0.116,2.266v4.025h-2.138v-8.929
		h3.151l3.249,6.205h0.037c-0.057-0.9-0.085-1.623-0.085-2.168v-4.037h2.15V146.206z"/>
	<path fill="#818286" d="M121.583,146.206v-8.929h2.425v8.929H121.583z"/>
	<path fill="#818286" d="M129.522,140.978h3.854v4.813c-1.046,0.358-2.197,0.538-3.451,0.538c-1.376,0-2.44-0.399-3.191-1.197
		c-0.751-0.798-1.126-1.936-1.126-3.414c0-1.441,0.411-2.563,1.233-3.365c0.823-0.802,1.975-1.203,3.457-1.203
		c0.562,0,1.092,0.053,1.591,0.159c0.499,0.106,0.934,0.24,1.304,0.403l-0.763,1.893c-0.644-0.317-1.35-0.476-2.119-0.476
		c-0.705,0-1.249,0.229-1.634,0.687s-0.577,1.112-0.577,1.963c0,0.834,0.174,1.471,0.522,1.909c0.348,0.438,0.85,0.656,1.506,0.656
		c0.358,0,0.688-0.035,0.989-0.104v-1.399h-1.594V140.978z"/>
	<path fill="#818286" d="M142.848,146.206h-2.424v-3.64h-2.803v3.64h-2.425v-8.929h2.425v3.31h2.803v-3.31h2.424V146.206z"/>
	<path fill="#818286" d="M148.718,146.206h-2.413v-6.956h-2.18v-1.973h6.767v1.973h-2.174V146.206z"/>
</g>
<g>
	<path fill="#818286" d="M217.002,106.147h-4.02l-1.205-5.483c-0.057-0.229-0.147-0.686-0.271-1.369
		c-0.124-0.683-0.214-1.254-0.271-1.713c-0.046,0.373-0.121,0.836-0.224,1.39c-0.103,0.554-0.205,1.063-0.305,1.528
		c-0.101,0.465-0.518,2.347-1.252,5.646h-4.02l-3.116-12.584h3.28l1.369,6.31c0.31,1.395,0.522,2.505,0.637,3.331
		c0.075-0.585,0.208-1.38,0.4-2.384s0.372-1.836,0.538-2.496l1.11-4.76h3.15l1.076,4.76c0.184,0.763,0.37,1.644,0.56,2.643
		c0.189,0.999,0.315,1.744,0.378,2.238c0.075-0.637,0.278-1.742,0.611-3.314l1.395-6.327h3.279L217.002,106.147z"/>
	<path fill="#818286" d="M229.199,106.147h-7.472V93.563h7.472v2.729h-4.071v1.98h3.77V101h-3.77v2.376h4.071V106.147z"/>
	<path fill="#818286" d="M238.874,106.147h-7.472V93.563h7.472v2.729h-4.071v1.98h3.77V101h-3.77v2.376h4.071V106.147z"/>
	<path fill="#818286" d="M251.829,106.147h-3.839l-2.487-4.812l-1.008,0.603v4.209h-3.417V93.563h3.417v5.466
		c0.173-0.338,0.52-0.875,1.042-1.609l2.643-3.856h3.719l-3.969,5.638L251.829,106.147z"/>
	<path fill="#818286" d="M263.871,99.588c0,2.1-0.578,3.719-1.734,4.855s-2.781,1.704-4.876,1.704h-4.072V93.563h4.356
		c2.02,0,3.579,0.517,4.678,1.549C263.321,96.145,263.871,97.637,263.871,99.588z M260.342,99.708c0-1.153-0.228-2.008-0.684-2.565
		c-0.457-0.556-1.149-0.834-2.079-0.834h-0.991v7.049h0.758c1.033,0,1.79-0.3,2.272-0.899S260.342,100.942,260.342,99.708z"/>
	<path fill="#818286" d="M273.848,106.147l-0.62-2.358h-4.088l-0.638,2.358h-3.735l4.105-12.636h4.537l4.157,12.636H273.848z
		 M272.522,101l-0.543-2.066c-0.126-0.459-0.279-1.053-0.46-1.782c-0.181-0.729-0.3-1.251-0.357-1.566
		c-0.052,0.292-0.153,0.774-0.306,1.446s-0.489,1.994-1.012,3.968H272.522z"/>
	<path fill="#818286" d="M283.42,98.228l2.169-4.666h3.684l-4.14,7.669v4.915h-3.426v-4.812l-4.141-7.773h3.701L283.42,98.228z"/>
	<path fill="#818286" d="M298.861,102.325c0,0.78-0.198,1.473-0.594,2.079c-0.396,0.605-0.967,1.076-1.713,1.412
		c-0.746,0.336-1.621,0.504-2.625,0.504c-0.838,0-1.541-0.059-2.109-0.177s-1.159-0.323-1.773-0.615v-3.03
		c0.648,0.333,1.323,0.593,2.023,0.779c0.699,0.187,1.343,0.28,1.928,0.28c0.505,0,0.875-0.087,1.11-0.263
		c0.235-0.175,0.353-0.4,0.353-0.676c0-0.172-0.047-0.323-0.142-0.452c-0.095-0.129-0.247-0.26-0.456-0.392
		c-0.21-0.132-0.768-0.402-1.674-0.809c-0.821-0.373-1.437-0.735-1.847-1.085c-0.41-0.35-0.715-0.751-0.912-1.205
		c-0.198-0.453-0.298-0.99-0.298-1.609c0-1.159,0.422-2.063,1.266-2.711s2.003-0.973,3.478-0.973c1.303,0,2.631,0.301,3.985,0.904
		l-1.041,2.625c-1.177-0.54-2.192-0.81-3.048-0.81c-0.441,0-0.763,0.078-0.964,0.232c-0.201,0.155-0.301,0.348-0.301,0.577
		c0,0.247,0.127,0.468,0.383,0.663c0.255,0.195,0.948,0.551,2.079,1.067c1.084,0.488,1.837,1.011,2.259,1.571
		S298.861,101.476,298.861,102.325z"/>
</g>
<g>
	<path fill="#818286" d="M106.95,323.198h-3.164l-3.261-6.29h-0.055c0.078,0.989,0.116,1.744,0.116,2.266v4.024h-2.138v-8.929h3.151
		l3.249,6.205h0.037c-0.057-0.9-0.085-1.623-0.085-2.168v-4.037h2.15V323.198z"/>
	<path fill="#818286" d="M117.234,318.722c0,1.502-0.369,2.645-1.105,3.426c-0.737,0.782-1.816,1.173-3.237,1.173
		c-1.401,0-2.475-0.393-3.222-1.179s-1.121-1.93-1.121-3.433c0-1.485,0.372-2.62,1.114-3.404c0.743-0.784,1.823-1.176,3.24-1.176
		c1.421,0,2.498,0.389,3.23,1.166C116.868,316.073,117.234,317.215,117.234,318.722z M111.09,318.722c0,1.727,0.601,2.59,1.802,2.59
		c0.611,0,1.063-0.21,1.359-0.63c0.295-0.419,0.443-1.072,0.443-1.96c0-0.892-0.15-1.55-0.449-1.976s-0.746-0.639-1.34-0.639
		C111.695,316.107,111.09,316.979,111.09,318.722z"/>
	<path fill="#818286" d="M127.202,318.722c0,1.502-0.369,2.645-1.105,3.426c-0.737,0.782-1.816,1.173-3.237,1.173
		c-1.401,0-2.475-0.393-3.222-1.179s-1.121-1.93-1.121-3.433c0-1.485,0.372-2.62,1.114-3.404c0.743-0.784,1.823-1.176,3.24-1.176
		c1.421,0,2.498,0.389,3.23,1.166C126.835,316.073,127.202,317.215,127.202,318.722z M121.058,318.722
		c0,1.727,0.601,2.59,1.802,2.59c0.611,0,1.063-0.21,1.359-0.63c0.295-0.419,0.443-1.072,0.443-1.96c0-0.892-0.15-1.55-0.449-1.976
		s-0.746-0.639-1.34-0.639C121.662,316.107,121.058,316.979,121.058,318.722z"/>
	<path fill="#818286" d="M137.315,323.198h-3.164l-3.261-6.29h-0.055c0.078,0.989,0.116,1.744,0.116,2.266v4.024h-2.138v-8.929
		h3.151l3.249,6.205h0.037c-0.057-0.9-0.085-1.623-0.085-2.168v-4.037h2.15V323.198z"/>
</g>
<g>
	<path fill="#818286" d="M418.049,155.128h-2.185v-4.218c0-0.512,0.011-0.981,0.032-1.406c-0.134,0.164-0.302,0.334-0.501,0.512
		l-0.904,0.747l-1.117-1.373l2.735-2.229h1.939V155.128z"/>
</g>
<g>
	<path fill="#818286" d="M441.419,163.148h-5.779v-1.417l1.945-1.966c0.556-0.581,0.918-0.978,1.089-1.19s0.29-0.395,0.357-0.548
		c0.066-0.152,0.101-0.312,0.101-0.479c0-0.207-0.067-0.371-0.202-0.49c-0.134-0.12-0.323-0.18-0.566-0.18
		c-0.25,0-0.504,0.072-0.76,0.215c-0.256,0.144-0.546,0.355-0.869,0.635l-1.182-1.384c0.41-0.367,0.755-0.629,1.035-0.787
		c0.279-0.158,0.584-0.278,0.912-0.362c0.329-0.083,0.698-0.125,1.108-0.125c0.516,0,0.977,0.091,1.381,0.272
		c0.405,0.182,0.72,0.44,0.942,0.776c0.224,0.336,0.335,0.713,0.335,1.13c0,0.313-0.039,0.601-0.117,0.866s-0.198,0.526-0.362,0.782
		c-0.163,0.256-0.38,0.525-0.65,0.809c-0.271,0.284-0.848,0.821-1.729,1.613v0.054h3.012V163.148z"/>
</g>
<g>
	<path fill="#818286" d="M459.657,170.358c0,0.494-0.15,0.917-0.452,1.271c-0.302,0.354-0.737,0.611-1.308,0.771v0.033
		c1.329,0.167,1.994,0.795,1.994,1.885c0,0.741-0.293,1.324-0.88,1.749c-0.586,0.425-1.4,0.637-2.443,0.637
		c-0.428,0-0.825-0.031-1.189-0.093c-0.365-0.062-0.76-0.174-1.186-0.337v-1.787c0.349,0.178,0.704,0.31,1.065,0.395
		c0.361,0.085,0.694,0.128,0.999,0.128c0.473,0,0.816-0.066,1.033-0.199c0.216-0.132,0.323-0.34,0.323-0.624
		c0-0.218-0.056-0.386-0.169-0.504c-0.112-0.118-0.294-0.207-0.544-0.267c-0.251-0.06-0.578-0.09-0.98-0.09h-0.49v-1.618h0.501
		c1.093,0,1.64-0.279,1.64-0.839c0-0.21-0.081-0.367-0.242-0.468c-0.162-0.102-0.379-0.153-0.651-0.153
		c-0.509,0-1.035,0.171-1.58,0.512l-0.893-1.438c0.421-0.291,0.853-0.498,1.293-0.621c0.441-0.124,0.947-0.185,1.518-0.185
		c0.824,0,1.471,0.164,1.939,0.49C459.423,169.334,459.657,169.785,459.657,170.358z"/>
</g>
<g>
	<path fill="#818286" d="M473.135,192.695h-0.877v1.542h-2.125v-1.542h-3.176v-1.58l3.313-4.843h1.988v4.815h0.877V192.695z
		 M470.133,191.088v-0.926c0-0.174,0.007-0.409,0.02-0.705s0.022-0.451,0.029-0.466h-0.06c-0.123,0.28-0.264,0.541-0.419,0.784
		l-0.883,1.313H470.133z"/>
</g>
<g>
	<path fill="#818286" d="M476.799,208.264c0.457,0,0.87,0.106,1.239,0.318c0.368,0.212,0.655,0.513,0.86,0.902
		s0.308,0.837,0.308,1.345c0,0.89-0.268,1.572-0.804,2.048c-0.535,0.476-1.346,0.713-2.432,0.713c-0.93,0-1.688-0.144-2.277-0.43
		v-1.765c0.316,0.146,0.673,0.265,1.07,0.36c0.398,0.094,0.74,0.142,1.027,0.142c0.399,0,0.706-0.084,0.92-0.253
		c0.215-0.169,0.322-0.418,0.322-0.749c0-0.305-0.109-0.543-0.327-0.713c-0.218-0.171-0.549-0.256-0.991-0.256
		c-0.338,0-0.703,0.063-1.095,0.191l-0.79-0.393l0.3-4.205h4.543v1.792h-2.713l-0.099,1.051c0.283-0.054,0.485-0.084,0.604-0.09
		C476.586,208.267,476.697,208.264,476.799,208.264z"/>
</g>
<g>
	<path fill="#818286" d="M478.497,233.309c0-1.111,0.159-2.011,0.478-2.699c0.317-0.688,0.786-1.196,1.405-1.522
		s1.382-0.49,2.29-0.49c0.323,0,0.701,0.031,1.133,0.093v1.683c-0.363-0.069-0.757-0.104-1.182-0.104
		c-0.719,0-1.255,0.158-1.607,0.474c-0.352,0.316-0.544,0.832-0.577,1.547h0.065c0.327-0.618,0.852-0.926,1.574-0.926
		c0.708,0,1.258,0.228,1.647,0.684c0.391,0.456,0.586,1.09,0.586,1.904c0,0.875-0.247,1.566-0.74,2.073
		c-0.494,0.506-1.185,0.76-2.07,0.76c-0.94,0-1.676-0.305-2.206-0.915C478.763,235.258,478.497,234.405,478.497,233.309z
		 M481.45,235.079c0.229,0,0.414-0.086,0.558-0.259c0.144-0.172,0.216-0.447,0.216-0.825c0-0.646-0.251-0.969-0.752-0.969
		c-0.247,0-0.447,0.083-0.602,0.25s-0.231,0.37-0.231,0.61c0,0.349,0.074,0.635,0.223,0.858
		C481.011,234.967,481.207,235.079,481.45,235.079z"/>
</g>
<g>
	<path fill="#FBB82F" d="M477.581,256.938l3.454-7.797h-4.355v-2.25h7.26v1.604l-3.544,8.444H477.581z"/>
</g>
<g>
	<path fill="#818286" d="M470.057,266.348c0.839,0,1.491,0.169,1.958,0.507s0.7,0.816,0.7,1.438c0,0.422-0.109,0.791-0.329,1.108
		c-0.22,0.318-0.567,0.595-1.044,0.831c0.589,0.334,1.004,0.667,1.245,1c0.241,0.332,0.362,0.69,0.362,1.075
		c0,0.708-0.256,1.257-0.769,1.646c-0.512,0.389-1.227,0.583-2.146,0.583c-0.938,0-1.654-0.19-2.152-0.569
		c-0.497-0.38-0.746-0.926-0.746-1.638c0-0.461,0.111-0.854,0.333-1.179c0.221-0.325,0.594-0.62,1.116-0.886
		c-0.421-0.283-0.729-0.587-0.923-0.912c-0.194-0.325-0.292-0.682-0.292-1.07c0-0.61,0.238-1.085,0.714-1.425
		C468.561,266.518,469.218,266.348,470.057,266.348z M469.109,272.241c0,0.226,0.079,0.406,0.239,0.542
		c0.16,0.137,0.381,0.204,0.664,0.204c0.64,0,0.959-0.233,0.959-0.702c0-0.178-0.069-0.354-0.21-0.525
		c-0.14-0.173-0.389-0.366-0.749-0.58c-0.323,0.17-0.555,0.342-0.694,0.515C469.179,271.866,469.109,272.049,469.109,272.241z
		 M470.046,267.9c-0.186,0-0.342,0.054-0.469,0.16c-0.127,0.107-0.19,0.246-0.19,0.417c0,0.313,0.213,0.588,0.638,0.828
		c0.258-0.149,0.434-0.285,0.528-0.409c0.094-0.123,0.142-0.263,0.142-0.419c0-0.175-0.063-0.314-0.191-0.42
		C470.376,267.953,470.224,267.9,470.046,267.9z"/>
</g>
<g>
	<path fill="#818286" d="M459.984,288.365c0,1.558-0.336,2.686-1.008,3.383s-1.747,1.046-3.225,1.046
		c-0.487,0-0.857-0.019-1.111-0.055v-1.705c0.313,0.058,0.624,0.087,0.937,0.087c0.771,0,1.364-0.158,1.781-0.477
		c0.418-0.317,0.645-0.819,0.681-1.506h-0.064c-0.142,0.262-0.282,0.45-0.42,0.566s-0.307,0.205-0.507,0.267
		c-0.199,0.062-0.448,0.093-0.746,0.093c-0.689,0-1.229-0.23-1.618-0.691c-0.388-0.462-0.582-1.097-0.582-1.907
		c0-0.882,0.251-1.574,0.754-2.075s1.192-0.752,2.067-0.752c0.974,0,1.727,0.323,2.261,0.97
		C459.717,286.255,459.984,287.174,459.984,288.365z M456.982,286.36c-0.235,0-0.428,0.085-0.574,0.256
		c-0.147,0.171-0.221,0.445-0.221,0.822c0,0.298,0.063,0.535,0.19,0.711c0.127,0.177,0.321,0.265,0.583,0.265
		c0.236,0,0.441-0.085,0.615-0.256c0.175-0.171,0.262-0.376,0.262-0.616c0-0.322-0.081-0.601-0.242-0.833
		C457.434,286.477,457.229,286.36,456.982,286.36z"/>
</g>
<g>
	<path fill="#818286" d="M440.438,305.268h-2.184v-4.216c0-0.513,0.011-0.98,0.032-1.405c-0.134,0.163-0.302,0.334-0.501,0.512
		l-0.904,0.746l-1.116-1.373l2.734-2.228h1.938V305.268z"/>
	<path fill="#818286" d="M447.989,301.297c0,1.409-0.236,2.441-0.708,3.097c-0.473,0.655-1.195,0.983-2.168,0.983
		c-0.952,0-1.669-0.343-2.152-1.027c-0.482-0.685-0.724-1.702-0.724-3.053c0-1.417,0.235-2.455,0.708-3.116
		c0.472-0.661,1.194-0.991,2.168-0.991c0.947,0,1.664,0.344,2.148,1.032C447.747,298.91,447.989,299.935,447.989,301.297z
		 M444.378,301.297c0,0.9,0.056,1.52,0.169,1.857c0.112,0.338,0.301,0.507,0.566,0.507c0.269,0,0.458-0.175,0.569-0.523
		c0.11-0.349,0.166-0.962,0.166-1.841c0-0.883-0.057-1.501-0.169-1.855c-0.112-0.354-0.302-0.53-0.566-0.53
		c-0.266,0-0.454,0.17-0.566,0.512C444.434,299.764,444.378,300.389,444.378,301.297z"/>
</g>
<g>
	<path fill="#818286" d="M376.123,313.903h-2.184v-4.216c0-0.513,0.011-0.98,0.032-1.405c-0.134,0.163-0.302,0.334-0.501,0.512
		l-0.904,0.746l-1.116-1.373l2.734-2.228h1.938V313.903z"/>
</g>
<g>
	<path fill="#818286" d="M357.364,305.268h-5.779v-1.416l1.945-1.967c0.556-0.581,0.918-0.978,1.089-1.19
		c0.171-0.212,0.29-0.395,0.357-0.547c0.066-0.152,0.101-0.313,0.101-0.479c0-0.207-0.067-0.37-0.202-0.49
		c-0.134-0.12-0.323-0.18-0.566-0.18c-0.25,0-0.504,0.071-0.76,0.215s-0.546,0.355-0.869,0.635l-1.182-1.384
		c0.41-0.366,0.755-0.629,1.035-0.787c0.279-0.158,0.584-0.278,0.912-0.362c0.329-0.083,0.698-0.125,1.108-0.125
		c0.516,0,0.977,0.091,1.381,0.272c0.405,0.182,0.72,0.44,0.942,0.776c0.224,0.336,0.335,0.713,0.335,1.13
		c0,0.313-0.039,0.602-0.117,0.866s-0.198,0.525-0.362,0.781c-0.163,0.257-0.38,0.526-0.65,0.81s-0.848,0.82-1.729,1.612v0.055
		h3.012V305.268z"/>
</g>
<g>
	<path fill="#818286" d="M339.006,284.556c0,0.494-0.15,0.918-0.452,1.272c-0.302,0.354-0.737,0.61-1.308,0.771v0.032
		c1.329,0.168,1.994,0.796,1.994,1.885c0,0.741-0.293,1.324-0.88,1.749c-0.586,0.425-1.4,0.638-2.443,0.638
		c-0.428,0-0.825-0.031-1.189-0.093c-0.365-0.062-0.76-0.175-1.186-0.338v-1.787c0.349,0.179,0.704,0.31,1.065,0.396
		c0.361,0.085,0.694,0.128,0.999,0.128c0.473,0,0.816-0.066,1.033-0.199c0.216-0.132,0.323-0.34,0.323-0.623
		c0-0.219-0.056-0.387-0.169-0.504c-0.112-0.118-0.294-0.207-0.544-0.268c-0.251-0.06-0.578-0.09-0.98-0.09h-0.49v-1.617h0.501
		c1.093,0,1.64-0.28,1.64-0.839c0-0.211-0.081-0.367-0.242-0.469c-0.162-0.102-0.379-0.152-0.651-0.152
		c-0.509,0-1.035,0.171-1.58,0.512l-0.893-1.438c0.421-0.29,0.853-0.497,1.293-0.62c0.441-0.124,0.947-0.186,1.518-0.186
		c0.824,0,1.471,0.163,1.939,0.49C338.771,283.532,339.006,283.982,339.006,284.556z"/>
</g>
<g>
	<path fill="#818286" d="M326.268,272.884h-0.877v1.542h-2.125v-1.542h-3.176v-1.579l3.313-4.843h1.988v4.815h0.877V272.884z
		 M323.266,271.277v-0.926c0-0.175,0.007-0.41,0.02-0.706s0.022-0.451,0.029-0.466h-0.06c-0.123,0.28-0.264,0.542-0.419,0.785
		l-0.883,1.313H323.266z"/>
</g>
<g>
	<path fill="#818286" d="M309.425,232.405c0-1.111,0.159-2.011,0.478-2.699c0.317-0.688,0.786-1.196,1.405-1.522
		s1.382-0.49,2.29-0.49c0.323,0,0.701,0.031,1.133,0.093v1.683c-0.363-0.069-0.757-0.104-1.182-0.104
		c-0.719,0-1.255,0.158-1.607,0.474c-0.352,0.316-0.544,0.832-0.577,1.547h0.065c0.327-0.618,0.852-0.926,1.574-0.926
		c0.708,0,1.258,0.228,1.647,0.684c0.391,0.456,0.586,1.09,0.586,1.904c0,0.875-0.247,1.566-0.74,2.073
		c-0.494,0.506-1.185,0.76-2.07,0.76c-0.94,0-1.676-0.305-2.206-0.915C309.69,234.355,309.425,233.502,309.425,232.405z
		 M312.378,234.175c0.229,0,0.414-0.086,0.558-0.259c0.144-0.172,0.216-0.447,0.216-0.825c0-0.646-0.251-0.969-0.752-0.969
		c-0.247,0-0.447,0.083-0.602,0.25s-0.231,0.37-0.231,0.61c0,0.349,0.074,0.635,0.223,0.858
		C311.938,234.064,312.135,234.175,312.378,234.175z"/>
</g>
<g>
	<path fill="#818286" d="M323.189,186.159c0.839,0,1.491,0.169,1.958,0.506c0.467,0.338,0.7,0.817,0.7,1.438
		c0,0.421-0.109,0.791-0.329,1.108s-0.567,0.595-1.044,0.831c0.589,0.334,1.004,0.667,1.245,1c0.241,0.333,0.362,0.691,0.362,1.076
		c0,0.708-0.256,1.257-0.769,1.645c-0.512,0.389-1.227,0.583-2.146,0.583c-0.938,0-1.654-0.189-2.152-0.569
		c-0.497-0.379-0.746-0.925-0.746-1.637c0-0.461,0.111-0.854,0.333-1.179c0.221-0.325,0.594-0.62,1.116-0.885
		c-0.421-0.283-0.729-0.587-0.923-0.913c-0.194-0.325-0.292-0.682-0.292-1.07c0-0.61,0.238-1.085,0.714-1.424
		S322.351,186.159,323.189,186.159z M322.242,192.053c0,0.225,0.079,0.406,0.239,0.542c0.16,0.136,0.381,0.204,0.664,0.204
		c0.64,0,0.959-0.234,0.959-0.703c0-0.178-0.069-0.353-0.21-0.526c-0.14-0.172-0.389-0.366-0.749-0.58
		c-0.323,0.171-0.555,0.342-0.694,0.515C322.312,191.678,322.242,191.86,322.242,192.053z M323.179,187.711
		c-0.186,0-0.342,0.054-0.469,0.161c-0.127,0.107-0.19,0.246-0.19,0.417c0,0.313,0.213,0.588,0.638,0.828
		c0.258-0.148,0.434-0.285,0.528-0.408c0.094-0.124,0.142-0.263,0.142-0.419c0-0.174-0.063-0.314-0.191-0.419
		C323.509,187.764,323.356,187.711,323.179,187.711z"/>
</g>
<g>
	<path fill="#818286" d="M339.333,170.96c0,1.558-0.336,2.686-1.008,3.383s-1.747,1.046-3.225,1.046
		c-0.487,0-0.857-0.018-1.111-0.054v-1.705c0.313,0.058,0.624,0.087,0.937,0.087c0.771,0,1.364-0.159,1.781-0.477
		c0.418-0.318,0.645-0.82,0.681-1.506h-0.064c-0.142,0.261-0.282,0.45-0.42,0.566s-0.307,0.205-0.507,0.267
		c-0.199,0.062-0.448,0.093-0.746,0.093c-0.689,0-1.229-0.23-1.618-0.692c-0.388-0.461-0.582-1.097-0.582-1.906
		c0-0.883,0.251-1.574,0.754-2.076c0.503-0.501,1.192-0.751,2.067-0.751c0.974,0,1.727,0.323,2.261,0.97
		C339.065,168.85,339.333,169.769,339.333,170.96z M336.331,168.956c-0.235,0-0.428,0.085-0.574,0.256
		c-0.147,0.171-0.221,0.445-0.221,0.823c0,0.298,0.063,0.535,0.19,0.711s0.321,0.264,0.583,0.264c0.236,0,0.441-0.085,0.615-0.256
		c0.175-0.17,0.262-0.375,0.262-0.615c0-0.323-0.081-0.601-0.242-0.833C336.782,169.072,336.578,168.956,336.331,168.956z"/>
</g>
<g>
	<path fill="#818286" d="M351.944,161.626h-2.184v-4.216c0-0.512,0.011-0.98,0.032-1.405c-0.134,0.164-0.302,0.334-0.501,0.512
		l-0.904,0.746l-1.116-1.373l2.734-2.228h1.938V161.626z"/>
	<path fill="#818286" d="M359.495,157.655c0,1.409-0.236,2.441-0.708,3.097c-0.473,0.656-1.195,0.983-2.168,0.983
		c-0.952,0-1.669-0.342-2.152-1.027c-0.482-0.685-0.724-1.702-0.724-3.053c0-1.416,0.235-2.455,0.708-3.116
		c0.472-0.661,1.194-0.991,2.168-0.991c0.947,0,1.664,0.344,2.148,1.032C359.253,155.269,359.495,156.293,359.495,157.655z
		 M355.884,157.655c0,0.901,0.056,1.52,0.169,1.858c0.112,0.337,0.301,0.506,0.566,0.506c0.269,0,0.458-0.174,0.569-0.523
		c0.11-0.349,0.166-0.962,0.166-1.841c0-0.882-0.057-1.5-0.169-1.854s-0.302-0.531-0.566-0.531c-0.266,0-0.454,0.171-0.566,0.512
		C355.939,156.123,355.884,156.748,355.884,157.655z"/>
</g>
<g>
	<path fill="#818286" d="M371.19,155.128h-2.184v-4.216c0-0.512,0.011-0.98,0.032-1.405c-0.134,0.164-0.302,0.334-0.501,0.512
		l-0.904,0.746l-1.116-1.373l2.734-2.228h1.938V155.128z"/>
	<path fill="#818286" d="M377.728,155.128h-2.184v-4.216c0-0.512,0.011-0.98,0.032-1.405c-0.134,0.164-0.302,0.334-0.501,0.512
		l-0.904,0.746l-1.116-1.373l2.734-2.228h1.938V155.128z"/>
</g>
<g>
	<path fill="#FBB82F" d="M424.178,320.429h-3.402v-6.567c0-0.798,0.017-1.527,0.051-2.189c-0.209,0.255-0.47,0.521-0.781,0.798
		l-1.408,1.162l-1.739-2.139l4.26-3.47h3.021V320.429z"/>
	<path fill="#FBB82F" d="M434.36,320.429h-3.402v-6.567c0-0.798,0.017-1.527,0.051-2.189c-0.209,0.255-0.47,0.521-0.781,0.798
		l-1.408,1.162l-1.739-2.139l4.26-3.47h3.021V320.429z"/>
</g>
<g>
	<path fill="#FBB82F" d="M314.678,252.423c0.713,0,1.356,0.166,1.931,0.497c0.574,0.331,1.021,0.799,1.341,1.404
		c0.319,0.605,0.479,1.304,0.479,2.096c0,1.387-0.417,2.45-1.252,3.191c-0.834,0.74-2.097,1.111-3.788,1.111
		c-1.448,0-2.631-0.224-3.547-0.671v-2.749c0.492,0.227,1.048,0.413,1.667,0.561c0.619,0.146,1.152,0.221,1.6,0.221
		c0.622,0,1.101-0.132,1.434-0.396c0.334-0.263,0.501-0.651,0.501-1.167c0-0.475-0.17-0.845-0.509-1.111
		c-0.34-0.266-0.854-0.399-1.545-0.399c-0.525,0-1.094,0.099-1.705,0.297l-1.23-0.611l0.467-6.551h7.077v2.792h-4.227l-0.152,1.638
		c0.441-0.085,0.755-0.132,0.941-0.14C314.348,252.428,314.52,252.423,314.678,252.423z"/>
</g>
<g>
	<path fill="#FBB82F" d="M311.804,215.316l4.26-9.614h-5.371v-2.775h8.952v1.977l-4.37,10.412H311.804z"/>
</g>
<g>
	<path fill="#818286" d="M369.563,146.206l-1.826-6.431h-0.055c0.085,1.096,0.128,1.946,0.128,2.553v3.878h-2.138v-8.929h3.213
		l1.862,6.339h0.049l1.826-6.339h3.219v8.929h-2.217v-3.915c0-0.204,0.003-0.43,0.009-0.678c0.006-0.248,0.033-0.857,0.082-1.826
		h-0.055l-1.802,6.419H369.563z"/>
	<path fill="#818286" d="M377.765,146.206v-8.929h2.425v8.929H377.765z"/>
	<path fill="#818286" d="M389.698,141.552c0,1.49-0.41,2.638-1.23,3.444s-1.974,1.209-3.46,1.209h-2.889v-8.929h3.091
		c1.433,0,2.539,0.366,3.319,1.099C389.309,139.109,389.698,140.167,389.698,141.552z M387.194,141.637
		c0-0.818-0.162-1.425-0.485-1.82c-0.324-0.395-0.815-0.592-1.475-0.592h-0.703v5.001h0.538c0.732,0,1.271-0.212,1.612-0.638
		C387.023,143.163,387.194,142.513,387.194,141.637z"/>
	<path fill="#818286" d="M399.8,146.206h-3.164l-3.262-6.291h-0.055c0.077,0.989,0.116,1.745,0.116,2.266v4.025h-2.138v-8.929h3.151
		l3.249,6.205h0.037c-0.058-0.9-0.086-1.623-0.086-2.168v-4.037h2.15V146.206z"/>
	<path fill="#818286" d="M401.729,146.206v-8.929h2.425v8.929H401.729z"/>
	<path fill="#818286" d="M409.669,140.978h3.854v4.813c-1.046,0.358-2.196,0.538-3.45,0.538c-1.376,0-2.44-0.399-3.191-1.197
		c-0.751-0.798-1.127-1.936-1.127-3.414c0-1.441,0.411-2.563,1.234-3.365c0.822-0.802,1.975-1.203,3.456-1.203
		c0.563,0,1.093,0.053,1.592,0.159c0.498,0.106,0.933,0.24,1.304,0.403l-0.764,1.893c-0.644-0.317-1.35-0.476-2.119-0.476
		c-0.704,0-1.249,0.229-1.634,0.687s-0.577,1.112-0.577,1.963c0,0.834,0.174,1.471,0.522,1.909c0.348,0.438,0.85,0.656,1.505,0.656
		c0.358,0,0.688-0.035,0.989-0.104v-1.399h-1.594V140.978z"/>
	<path fill="#818286" d="M422.995,146.206h-2.425v-3.64h-2.803v3.64h-2.425v-8.929h2.425v3.31h2.803v-3.31h2.425V146.206z"/>
	<path fill="#818286" d="M428.864,146.206h-2.412v-6.956h-2.181v-1.973h6.767v1.973h-2.174V146.206z"/>
</g>
<g>
	<path fill="#818286" d="M387.097,323.198h-3.164l-3.262-6.29h-0.055c0.077,0.989,0.116,1.744,0.116,2.266v4.024h-2.138v-8.929
		h3.151l3.249,6.205h0.037c-0.058-0.9-0.086-1.623-0.086-2.168v-4.037h2.15V323.198z"/>
	<path fill="#818286" d="M397.381,318.722c0,1.502-0.368,2.645-1.105,3.426c-0.736,0.782-1.815,1.173-3.236,1.173
		c-1.4,0-2.475-0.393-3.222-1.179s-1.121-1.93-1.121-3.433c0-1.485,0.372-2.62,1.115-3.404s1.823-1.176,3.239-1.176
		c1.421,0,2.498,0.389,3.231,1.166C397.015,316.073,397.381,317.215,397.381,318.722z M391.237,318.722
		c0,1.727,0.601,2.59,1.802,2.59c0.61,0,1.063-0.21,1.358-0.63c0.296-0.419,0.443-1.072,0.443-1.96c0-0.892-0.149-1.55-0.449-1.976
		c-0.299-0.426-0.746-0.639-1.341-0.639C391.842,316.107,391.237,316.979,391.237,318.722z"/>
	<path fill="#818286" d="M407.348,318.722c0,1.502-0.368,2.645-1.105,3.426c-0.736,0.782-1.815,1.173-3.236,1.173
		c-1.4,0-2.475-0.393-3.222-1.179s-1.121-1.93-1.121-3.433c0-1.485,0.372-2.62,1.115-3.404s1.823-1.176,3.239-1.176
		c1.421,0,2.498,0.389,3.231,1.166C406.981,316.073,407.348,317.215,407.348,318.722z M401.204,318.722
		c0,1.727,0.601,2.59,1.802,2.59c0.61,0,1.063-0.21,1.358-0.63c0.296-0.419,0.443-1.072,0.443-1.96c0-0.892-0.149-1.55-0.449-1.976
		c-0.299-0.426-0.746-0.639-1.341-0.639C401.809,316.107,401.204,316.979,401.204,318.722z"/>
	<path fill="#818286" d="M417.462,323.198h-3.164l-3.262-6.29h-0.055c0.077,0.989,0.116,1.744,0.116,2.266v4.024h-2.138v-8.929
		h3.151l3.249,6.205h0.037c-0.058-0.9-0.086-1.623-0.086-2.168v-4.037h2.15V323.198z"/>
</g>
<path fill="none" stroke="#F0664A" stroke-miterlimit="10" d="M197.168,98.956h-61.129c0,0-19.303-0.162-19.303,18.424"/>
<path fill="none" stroke="#F0664A" stroke-miterlimit="10" d="M309.044,98.956h64.254c0,0,20.29-0.162,20.29,18.424"/>
<g>
	<path fill="none" stroke="#F0664A" stroke-width="1.5" stroke-miterlimit="10" d="M338.116,387.177
		c0.165,0.164,0.362,0.243,0.536,0.245v3.798c0,0.771,0.212,1.394,0.473,1.394c0.262,0,0.474-0.623,0.474-1.394v-3.825
		c0.127-0.038,0.257-0.106,0.37-0.218l3.681-3.682c0.268-0.268,0.337-0.638,0.149-0.823c-0.183-0.183-0.551-0.115-0.818,0.154
		l-3.382,3.379V380.7c0-0.766-0.212-1.39-0.474-1.39c-0.261,0-0.473,0.624-0.473,1.39v5.671l-3.547-3.545
		c-0.268-0.268-0.638-0.337-0.823-0.15c-0.183,0.184-0.115,0.552,0.154,0.819L338.116,387.177z"/>
	<path fill="none" stroke="#F0664A" stroke-width="1.5" stroke-miterlimit="10" d="M357.8,399.624l-5.671,0.001l3.545-3.548
		c0.268-0.269,0.337-0.637,0.15-0.823c-0.184-0.184-0.552-0.116-0.819,0.154l-3.682,3.682c-0.165,0.164-0.243,0.361-0.245,0.535
		l-3.796,0.001c-0.471,0-0.884,0.078-1.137,0.198c-0.046-1.736-0.713-3.314-1.789-4.525c0.268-0.018,0.71-0.28,1.13-0.7l2.704-2.704
		c0.116,0.063,0.256,0.105,0.414,0.107h5.207c0.378,0,0.69-0.214,0.688-0.477c0-0.258-0.309-0.472-0.688-0.47l-4.781-0.002
		l3.893-3.893c0.542-0.541,0.833-1.133,0.647-1.318c-0.183-0.185-0.774,0.108-1.316,0.648l-4.01,4.011l-0.002-5.016
		c0-0.378-0.212-0.688-0.476-0.688c-0.259,0-0.471,0.309-0.471,0.688v5.207c0,0.232,0.084,0.428,0.205,0.552l-2.684,2.685
		c-0.405,0.405-0.669,0.833-0.702,1.104c-1.291-1.313-3.086-2.131-5.073-2.131c-1.794,0-3.429,0.669-4.68,1.765
		c-0.055-0.271-0.301-0.67-0.685-1.056l-2.704-2.703c0.063-0.116,0.105-0.256,0.107-0.414v-5.206c0-0.378-0.214-0.69-0.475-0.69
		c-0.26,0-0.474,0.311-0.47,0.69l-0.004,4.779l-3.893-3.893c-0.541-0.54-1.133-0.833-1.318-0.646
		c-0.185,0.181,0.108,0.772,0.647,1.316l4.01,4.007l-5.014,0.004c-0.378,0-0.688,0.211-0.688,0.477c0,0.258,0.309,0.471,0.688,0.471
		h5.206c0.232,0,0.429-0.084,0.553-0.206l2.685,2.683c0.375,0.375,0.761,0.616,1.032,0.68c-1.172,1.159-1.938,2.723-2.082,4.464
		c-0.25-0.079-0.582-0.128-0.951-0.128h-3.823c-0.038-0.127-0.106-0.257-0.218-0.37l-3.682-3.682
		c-0.268-0.266-0.64-0.335-0.823-0.15c-0.183,0.184-0.115,0.554,0.154,0.819l3.38,3.383h-5.506c-0.765,0-1.39,0.212-1.39,0.475
		c-0.002,0.26,0.625,0.47,1.39,0.472l5.671-0.001l-3.545,3.548c-0.268,0.269-0.337,0.637-0.15,0.823
		c0.184,0.184,0.552,0.116,0.819-0.154l3.682-3.682c0.165-0.164,0.243-0.361,0.246-0.535l3.795-0.001
		c0.357,0,0.68-0.047,0.926-0.121c0.025,1.731,0.669,3.311,1.721,4.531c-0.251,0.11-0.555,0.321-0.851,0.617l-2.704,2.704
		c-0.116-0.063-0.256-0.105-0.414-0.107h-5.207c-0.378,0-0.69,0.214-0.688,0.477c0,0.258,0.309,0.472,0.688,0.47l4.78,0.002
		l-3.892,3.892c-0.542,0.542-0.833,1.134-0.647,1.319c0.183,0.185,0.774-0.108,1.316-0.648l4.01-4.011l0.002,5.016
		c0,0.378,0.212,0.688,0.476,0.688c0.259,0,0.471-0.308,0.471-0.688v-5.207c0-0.232-0.084-0.428-0.205-0.552l2.684-2.685
		c0.287-0.286,0.497-0.581,0.61-0.827c1.282,1.247,3.029,2.019,4.959,2.019c1.892,0,3.605-0.743,4.88-1.947
		c0.048,0.271,0.299,0.681,0.69,1.074l2.704,2.703c-0.063,0.116-0.105,0.256-0.107,0.414v5.206c0,0.378,0.214,0.69,0.475,0.69
		c0.26,0,0.474-0.311,0.47-0.69l0.004-4.779l3.893,3.893c0.541,0.54,1.133,0.833,1.318,0.646c0.185-0.181-0.108-0.772-0.647-1.316
		l-4.011-4.008l5.015-0.003c0.378,0,0.688-0.211,0.688-0.477c0-0.259-0.309-0.471-0.688-0.471h-5.206
		c-0.232,0-0.429,0.084-0.553,0.206l-2.685-2.683c-0.393-0.392-0.801-0.645-1.072-0.692c1.128-1.194,1.842-2.775,1.929-4.525
		c0.252,0.122,0.669,0.202,1.145,0.202h3.823c0.038,0.127,0.106,0.257,0.218,0.37l3.682,3.682c0.268,0.266,0.64,0.335,0.823,0.15
		c0.183-0.184,0.115-0.554-0.154-0.819l-3.38-3.383h5.506c0.765,0,1.39-0.212,1.39-0.475
		C359.191,399.836,358.564,399.626,357.8,399.624z"/>
	<path fill="none" stroke="#F0664A" stroke-width="1.5" stroke-miterlimit="10" d="M340.174,412.689
		c-0.165-0.164-0.362-0.243-0.536-0.246v-3.797c0-0.771-0.212-1.394-0.473-1.394c-0.262,0-0.474,0.623-0.474,1.394v3.825
		c-0.127,0.038-0.257,0.106-0.37,0.218l-3.68,3.682c-0.269,0.268-0.338,0.638-0.15,0.823c0.183,0.183,0.551,0.115,0.818-0.154
		l3.382-3.379v5.505c0,0.766,0.212,1.39,0.474,1.39c0.261,0,0.473-0.624,0.473-1.39v-5.671l3.547,3.545
		c0.268,0.268,0.638,0.337,0.823,0.15c0.183-0.184,0.115-0.552-0.154-0.819L340.174,412.689z"/>
</g>
<path fill="none" stroke="#F0664A" stroke-miterlimit="10" d="M45.365,380.735c0-0.479-0.212-0.87-0.474-0.87l0,0
	c-0.261,0-0.473,0.392-0.473,0.87v6.567c0,0.479,0.212,0.869,0.473,0.869l0,0c0.262,0,0.474-0.39,0.474-0.869V380.735z"/>
<path fill="none" stroke="#F0664A" stroke-miterlimit="10" d="M64.646,399.78c0.479,0,0.869-0.213,0.869-0.475l0,0
	c0-0.262-0.391-0.475-0.869-0.475h-6.567c-0.479,0-0.869,0.213-0.869,0.475l0,0c0,0.262,0.39,0.475,0.869,0.475H64.646z"/>
<path fill="none" stroke="#F0664A" stroke-miterlimit="10" d="M44.419,419.48c0,0.478,0.212,0.869,0.475,0.869l0,0
	c0.26,0,0.472-0.392,0.472-0.869v-6.567c0-0.48-0.212-0.87-0.472-0.87l0,0c-0.263,0-0.475,0.39-0.475,0.87V419.48z"/>
<path fill="none" stroke="#F0664A" stroke-miterlimit="10" d="M25.139,398.831c-0.478,0-0.869,0.213-0.869,0.475l0,0
	c0,0.262,0.392,0.475,0.869,0.475h6.567c0.48,0,0.87-0.213,0.87-0.475l0,0c0-0.262-0.39-0.475-0.87-0.475H25.139z"/>
<path fill="none" stroke="#F0664A" stroke-miterlimit="10" d="M54.655,383.341c0.23-0.418,0.234-0.863,0.005-0.99l0,0
	c-0.229-0.124-0.603,0.115-0.834,0.533l-3.169,5.752c-0.231,0.423-0.233,0.866-0.004,0.989l0,0c0.229,0.127,0.602-0.111,0.832-0.53
	L54.655,383.341z"/>
<path fill="none" stroke="#F0664A" stroke-miterlimit="10" d="M62.354,409.325c0.419,0.231,0.864,0.235,0.991,0.004l0,0
	c0.123-0.229-0.116-0.605-0.534-0.832l-5.752-3.172c-0.42-0.23-0.865-0.232-0.989-0.004l0,0c-0.127,0.229,0.112,0.604,0.532,0.837
	L62.354,409.325z"/>
<path fill="none" stroke="#F0664A" stroke-miterlimit="10" d="M35.132,416.82c-0.231,0.42-0.235,0.863-0.004,0.99l0,0
	c0.228,0.126,0.602-0.115,0.833-0.533l3.169-5.751c0.231-0.424,0.233-0.865,0.004-0.99l0,0c-0.228-0.127-0.602,0.111-0.833,0.532
	L35.132,416.82z"/>
<path fill="none" stroke="#F0664A" stroke-miterlimit="10" d="M28.208,389.433c-0.42-0.231-0.864-0.235-0.991-0.006l0,0
	c-0.125,0.229,0.115,0.605,0.533,0.834l5.751,3.17c0.42,0.23,0.863,0.234,0.991,0.006l0,0c0.127-0.229-0.112-0.604-0.532-0.835
	L28.208,389.433z"/>
<path fill="none" stroke="#F0664A" stroke-miterlimit="10" d="M62.053,390.791c0.417-0.235,0.654-0.61,0.524-0.84l0,0
	c-0.127-0.226-0.574-0.218-0.99,0.017l-5.716,3.231c-0.418,0.237-0.653,0.612-0.524,0.84l0,0c0.129,0.228,0.572,0.222,0.989-0.015
	L62.053,390.791z"/>
<path fill="none" stroke="#F0664A" stroke-miterlimit="10" d="M54.963,416.947c0.235,0.416,0.611,0.653,0.839,0.524l0,0
	c0.229-0.129,0.222-0.574-0.014-0.991l-3.232-5.717c-0.237-0.417-0.611-0.651-0.841-0.522l0,0c-0.229,0.127-0.222,0.57,0.014,0.99
	L54.963,416.947z"/>
<path fill="none" stroke="#F0664A" stroke-miterlimit="10" d="M27.858,409.034c-0.416,0.235-0.652,0.611-0.523,0.841l0,0
	c0.128,0.226,0.573,0.218,0.989-0.018l5.717-3.23c0.42-0.237,0.653-0.613,0.524-0.841l0,0c-0.128-0.228-0.571-0.222-0.989,0.016
	L27.858,409.034z"/>
<path fill="none" stroke="#F0664A" stroke-miterlimit="10" d="M36.347,382.09c-0.235-0.418-0.611-0.653-0.841-0.526l0,0
	c-0.228,0.132-0.22,0.576,0.016,0.991l3.23,5.717c0.237,0.419,0.613,0.654,0.841,0.524l0,0c0.229-0.129,0.224-0.572-0.014-0.988
	L36.347,382.09z"/>
<circle fill="none" stroke="#F0664A" stroke-width="1.5" stroke-miterlimit="10" cx="44.809" cy="400.015" r="7.113"/>
<g>
	<path fill="#818286" d="M383.001,395.671h-3.837l-1.149-5.232c-0.055-0.219-0.142-0.654-0.259-1.306
		c-0.118-0.652-0.204-1.197-0.259-1.635c-0.044,0.355-0.115,0.798-0.214,1.326s-0.195,1.015-0.291,1.458
		c-0.097,0.443-0.495,2.24-1.195,5.389h-3.836l-2.974-12.009h3.129l1.307,6.021c0.296,1.331,0.498,2.391,0.607,3.179
		c0.071-0.559,0.199-1.316,0.382-2.275c0.184-0.958,0.354-1.752,0.514-2.382l1.06-4.542h3.007l1.026,4.542
		c0.176,0.729,0.354,1.569,0.534,2.521c0.181,0.953,0.301,1.665,0.361,2.136c0.071-0.607,0.266-1.662,0.583-3.162l1.331-6.037h3.13
		L383.001,395.671z"/>
	<path fill="#818286" d="M387.51,395.671v-12.009h3.261v12.009H387.51z"/>
	<path fill="#818286" d="M404.802,395.671h-4.255l-4.387-8.461h-0.074c0.104,1.331,0.156,2.347,0.156,3.048v5.413h-2.875v-12.009
		h4.238l4.37,8.346h0.05c-0.077-1.211-0.115-2.183-0.115-2.917v-5.429h2.892V395.671z"/>
	<path fill="#818286" d="M412.694,395.671h-3.244v-9.356h-2.933v-2.652h9.102v2.652h-2.925V395.671z"/>
	<path fill="#818286" d="M424.466,395.671h-7.13v-12.009h7.13v2.604h-3.886v1.89h3.599v2.604h-3.599v2.268h3.886V395.671z"/>
	<path fill="#818286" d="M429.813,391.301v4.37h-3.244v-12.009h3.935c3.264,0,4.896,1.183,4.896,3.548
		c0,1.392-0.679,2.468-2.037,3.229l3.499,5.232h-3.68l-2.546-4.37H429.813z M429.813,388.861h0.608c1.134,0,1.7-0.501,1.7-1.503
		c0-0.827-0.556-1.24-1.667-1.24h-0.642V388.861z"/>
</g>
<g>
	<path fill="#818286" d="M381.904,417.054h-4.786l-4.934-9.516h-0.083c0.117,1.496,0.176,2.639,0.176,3.428v6.088h-3.233v-13.507
		h4.767l4.915,9.387h0.056c-0.086-1.361-0.129-2.455-0.129-3.28v-6.106h3.252V417.054z"/>
	<path fill="#818286" d="M394.607,411.797c0,1.712-0.46,3.047-1.381,4.005s-2.21,1.437-3.866,1.437
		c-1.589,0-2.854-0.489-3.793-1.469s-1.408-2.304-1.408-3.973c0-1.706,0.46-3.032,1.381-3.978s2.213-1.418,3.876-1.418
		c1.028,0,1.937,0.219,2.725,0.656c0.789,0.438,1.396,1.063,1.825,1.88C394.394,409.754,394.607,410.707,394.607,411.797z
		 M387.826,411.797c0,0.899,0.12,1.584,0.36,2.056c0.24,0.471,0.644,0.707,1.211,0.707c0.561,0,0.956-0.236,1.187-0.707
		c0.231-0.472,0.347-1.156,0.347-2.056c0-0.893-0.117-1.567-0.351-2.023c-0.234-0.456-0.635-0.684-1.201-0.684
		c-0.555,0-0.952,0.227-1.192,0.679C387.946,410.222,387.826,410.897,387.826,411.797z"/>
	<path fill="#818286" d="M399.411,417.054l-3.991-10.468h3.77l1.773,6.19c0.007,0.03,0.019,0.083,0.037,0.157
		c0.019,0.073,0.037,0.161,0.056,0.263s0.035,0.21,0.051,0.323c0.016,0.114,0.023,0.221,0.023,0.319h0.064
		c0-0.32,0.056-0.669,0.166-1.044l1.857-6.209h3.76l-3.991,10.468H399.411z"/>
	<path fill="#818286" d="M420.597,417.054h-3.705v-7.15c0-0.869,0.019-1.663,0.056-2.384c-0.229,0.277-0.512,0.566-0.85,0.868
		l-1.534,1.266l-1.894-2.328l4.638-3.778h3.289V417.054z"/>
	<path fill="#818286" d="M428.292,413.423v-2.883h5.22v2.883H428.292z"/>
	<path fill="#818286" d="M448.571,417.054l-0.665-2.531h-4.389l-0.684,2.531h-4.01l4.407-13.563h4.868l4.463,13.563H448.571z
		 M447.148,411.529l-0.582-2.218c-0.136-0.492-0.301-1.13-0.494-1.912c-0.194-0.782-0.322-1.343-0.384-1.682
		c-0.056,0.314-0.165,0.831-0.328,1.552s-0.524,2.141-1.085,4.26H447.148z"/>
	<path fill="#818286" d="M460.092,417.238c-0.529,0-1.004-0.088-1.423-0.263c-0.419-0.176-0.834-0.491-1.247-0.947h-0.166
		c0.11,0.733,0.166,1.188,0.166,1.367v4.204h-3.612v-15.014h2.938l0.508,1.331h0.166c0.672-1.011,1.599-1.516,2.781-1.516
		c1.158,0,2.066,0.48,2.726,1.441c0.658,0.961,0.988,2.279,0.988,3.954c0,1.688-0.344,3.017-1.03,3.986
		C462.2,416.754,461.269,417.238,460.092,417.238z M458.882,409.237c-0.53,0-0.9,0.189-1.113,0.568s-0.328,0.941-0.347,1.687v0.286
		c0,0.899,0.12,1.549,0.36,1.949s0.619,0.601,1.137,0.601c0.462,0,0.798-0.198,1.007-0.596s0.314-1.055,0.314-1.973
		c0-0.899-0.105-1.544-0.314-1.936C459.717,409.434,459.368,409.237,458.882,409.237z"/>
	<path fill="#818286" d="M472.296,406.401c0.314,0,0.613,0.024,0.896,0.074l0.203,0.037l-0.323,3.408
		c-0.296-0.073-0.705-0.11-1.229-0.11c-0.789,0-1.361,0.18-1.719,0.54s-0.536,0.88-0.536,1.557v5.146h-3.612v-10.468h2.688
		l0.563,1.673h0.176c0.302-0.555,0.722-1.003,1.261-1.345S471.748,406.401,472.296,406.401z"/>
	<path fill="#818286" d="M488.437,406.476c0,0.838-0.256,1.557-0.767,2.157c-0.512,0.601-1.251,1.036-2.218,1.307v0.056
		c2.255,0.283,3.382,1.349,3.382,3.197c0,1.256-0.497,2.244-1.492,2.965s-2.376,1.081-4.144,1.081c-0.727,0-1.399-0.052-2.019-0.157
		c-0.619-0.104-1.289-0.295-2.01-0.572v-3.03c0.592,0.302,1.193,0.525,1.807,0.67c0.612,0.145,1.178,0.217,1.695,0.217
		c0.801,0,1.384-0.112,1.751-0.337c0.366-0.225,0.549-0.578,0.549-1.059c0-0.369-0.095-0.654-0.286-0.854
		c-0.19-0.2-0.499-0.351-0.924-0.452s-0.979-0.152-1.663-0.152h-0.831v-2.744h0.85c1.854,0,2.781-0.475,2.781-1.423
		c0-0.357-0.138-0.622-0.411-0.795c-0.274-0.172-0.643-0.258-1.104-0.258c-0.862,0-1.755,0.289-2.679,0.868l-1.516-2.439
		c0.715-0.492,1.446-0.844,2.194-1.053c0.748-0.21,1.606-0.314,2.573-0.314c1.397,0,2.494,0.277,3.289,0.832
		C488.039,404.738,488.437,405.502,488.437,406.476z"/>
	<path fill="#818286" d="M500.03,410.318c0,2.39-0.4,4.141-1.2,5.253c-0.801,1.111-2.027,1.667-3.678,1.667
		c-1.613,0-2.83-0.58-3.649-1.741c-0.818-1.161-1.229-2.888-1.229-5.179c0-2.401,0.4-4.163,1.201-5.284s2.026-1.682,3.677-1.682
		c1.607,0,2.822,0.584,3.645,1.751S500.03,408.009,500.03,410.318z M493.905,410.318c0,1.528,0.096,2.578,0.286,3.15
		c0.191,0.573,0.512,0.859,0.961,0.859c0.456,0,0.777-0.296,0.966-0.887c0.188-0.592,0.281-1.632,0.281-3.123
		c0-1.496-0.095-2.545-0.286-3.146c-0.19-0.601-0.511-0.9-0.961-0.9c-0.449,0-0.77,0.289-0.961,0.868
		C494.001,407.72,493.905,408.779,493.905,410.318z"/>
</g>
<g>
	<path fill="#818286" d="M84.267,392.023c0,0.745-0.189,1.406-0.567,1.984c-0.378,0.577-0.923,1.026-1.635,1.347
		s-1.547,0.48-2.505,0.48c-0.799,0-1.47-0.056-2.012-0.168c-0.542-0.112-1.106-0.309-1.692-0.588v-2.891
		c0.619,0.317,1.262,0.565,1.93,0.743c0.668,0.178,1.282,0.267,1.84,0.267c0.481,0,0.835-0.083,1.06-0.25s0.337-0.382,0.337-0.646
		c0-0.164-0.045-0.308-0.136-0.431s-0.235-0.248-0.436-0.374c-0.2-0.126-0.732-0.383-1.598-0.772c-0.783-0.355-1.37-0.7-1.762-1.034
		s-0.682-0.718-0.871-1.15s-0.284-0.944-0.284-1.536c0-1.106,0.403-1.969,1.208-2.588c0.805-0.618,1.911-0.928,3.319-0.928
		c1.243,0,2.511,0.287,3.803,0.862l-0.994,2.506c-1.123-0.515-2.092-0.772-2.908-0.772c-0.422,0-0.729,0.074-0.92,0.222
		c-0.192,0.147-0.288,0.331-0.288,0.551c0,0.235,0.122,0.446,0.365,0.632c0.244,0.187,0.905,0.526,1.984,1.019
		c1.035,0.466,1.754,0.966,2.156,1.499C84.065,390.541,84.267,391.214,84.267,392.023z"/>
	<path fill="#818286" d="M96.333,383.662v7.229c0,1.571-0.445,2.788-1.335,3.65c-0.89,0.863-2.173,1.294-3.849,1.294
		c-1.637,0-2.896-0.419-3.774-1.257s-1.318-2.042-1.318-3.614v-7.302h3.261v7.048c0,0.849,0.159,1.465,0.477,1.848
		c0.317,0.384,0.786,0.575,1.404,0.575c0.663,0,1.143-0.19,1.442-0.571c0.298-0.38,0.448-1.003,0.448-1.868v-7.031H96.333z"/>
	<path fill="#818286" d="M104.088,395.671l-2.456-8.649h-0.074c0.115,1.473,0.172,2.617,0.172,3.434v5.216h-2.875v-12.009h4.321
		l2.505,8.526h0.065l2.456-8.526h4.329v12.009h-2.982v-5.266c0-0.273,0.004-0.577,0.012-0.911c0.008-0.334,0.045-1.153,0.111-2.456
		H109.6l-2.423,8.633H104.088z"/>
	<path fill="#818286" d="M120.352,395.671l-2.456-8.649h-0.074c0.115,1.473,0.172,2.617,0.172,3.434v5.216h-2.875v-12.009h4.321
		l2.505,8.526h0.065l2.456-8.526h4.329v12.009h-2.982v-5.266c0-0.273,0.004-0.577,0.012-0.911c0.008-0.334,0.045-1.153,0.111-2.456
		h-0.074l-2.423,8.633H120.352z"/>
	<path fill="#818286" d="M138.514,395.671h-7.13v-12.009h7.13v2.604h-3.885v1.89h3.598v2.604h-3.598v2.268h3.885V395.671z"/>
	<path fill="#818286" d="M143.861,391.301v4.37h-3.245v-12.009h3.935c3.264,0,4.896,1.183,4.896,3.548
		c0,1.392-0.679,2.468-2.037,3.229l3.5,5.232h-3.68l-2.546-4.37H143.861z M143.861,388.861h0.608c1.133,0,1.7-0.501,1.7-1.503
		c0-0.827-0.556-1.24-1.667-1.24h-0.641V388.861z"/>
</g>
<g>
	<path fill="#818286" d="M81.313,417.054l-2.762-9.729h-0.083c0.129,1.657,0.194,2.944,0.194,3.862v5.866h-3.233v-13.507h4.859
		l2.818,9.59h0.074l2.763-9.59h4.869v13.507h-3.354v-5.922c0-0.308,0.004-0.65,0.014-1.025c0.009-0.376,0.051-1.297,0.125-2.763
		h-0.083l-2.726,9.71H81.313z"/>
	<path fill="#818286" d="M100.335,417.054l-0.693-1.386h-0.074c-0.487,0.604-0.983,1.017-1.488,1.238s-1.158,0.332-1.958,0.332
		c-0.985,0-1.762-0.296-2.328-0.887c-0.567-0.591-0.85-1.423-0.85-2.494c0-1.115,0.388-1.945,1.164-2.49
		c0.776-0.545,1.9-0.852,3.372-0.919l1.746-0.056v-0.147c0-0.862-0.425-1.294-1.275-1.294c-0.764,0-1.734,0.259-2.91,0.776
		l-1.044-2.384c1.22-0.628,2.759-0.942,4.62-0.942c1.342,0,2.382,0.333,3.118,0.998c0.736,0.665,1.104,1.595,1.104,2.79v6.864
		H100.335z M97.656,414.688c0.437,0,0.812-0.139,1.123-0.416c0.311-0.276,0.466-0.637,0.466-1.08v-0.813l-0.832,0.037
		c-1.188,0.043-1.783,0.48-1.783,1.312C96.631,414.368,96.973,414.688,97.656,414.688z"/>
	<path fill="#818286" d="M104.031,406.586h3.807l1.773,6.006c0.086,0.313,0.145,0.692,0.176,1.136h0.074
		c0.049-0.425,0.123-0.797,0.222-1.118l1.82-6.023h3.686l-4.139,11.133c-0.53,1.417-1.181,2.418-1.954,3.003
		s-1.782,0.878-3.026,0.878c-0.48,0-0.973-0.053-1.478-0.157v-2.837c0.326,0.074,0.699,0.111,1.118,0.111
		c0.32,0,0.601-0.062,0.841-0.185c0.24-0.124,0.45-0.298,0.628-0.522s0.37-0.593,0.573-1.104L104.031,406.586z"/>
	<path fill="#818286" d="M129.207,417.054h-3.705v-7.15c0-0.869,0.019-1.663,0.056-2.384c-0.228,0.277-0.511,0.566-0.85,0.868
		l-1.534,1.266l-1.894-2.328l4.638-3.778h3.289V417.054z"/>
	<path fill="#818286" d="M136.902,413.423v-2.883h5.22v2.883H136.902z"/>
	<path fill="#818286" d="M161.533,410.281c0,2.273-0.557,4.001-1.672,5.184s-2.747,1.773-4.896,1.773
		c-2.119,0-3.744-0.594-4.874-1.783c-1.13-1.188-1.695-2.919-1.695-5.191c0-2.248,0.562-3.966,1.686-5.151s2.758-1.778,4.901-1.778
		c2.15,0,3.779,0.589,4.888,1.765C160.979,406.275,161.533,408.003,161.533,410.281z M152.239,410.281
		c0,2.612,0.908,3.918,2.726,3.918c0.924,0,1.609-0.317,2.056-0.952c0.446-0.634,0.669-1.623,0.669-2.966
		c0-1.349-0.226-2.345-0.679-2.988c-0.453-0.644-1.129-0.966-2.028-0.966C153.153,406.327,152.239,407.646,152.239,410.281z"/>
	<path fill="#818286" d="M168.527,417.238c-1.712,0-3.011-0.462-3.895-1.386s-1.326-2.251-1.326-3.981
		c0-1.737,0.478-3.083,1.432-4.038c0.955-0.954,2.313-1.432,4.074-1.432c1.213,0,2.356,0.265,3.428,0.795l-1.063,2.67
		c-0.438-0.191-0.841-0.344-1.21-0.458c-0.37-0.113-0.754-0.171-1.155-0.171c-0.585,0-1.038,0.229-1.358,0.684
		c-0.32,0.456-0.48,1.1-0.48,1.932c0,1.675,0.619,2.513,1.857,2.513c1.059,0,2.076-0.308,3.049-0.924v2.873
		C170.95,416.931,169.833,417.238,168.527,417.238z"/>
	<path fill="#818286" d="M179.086,414.384c0.487,0,1.069-0.12,1.747-0.36v2.633c-0.487,0.21-0.95,0.359-1.391,0.448
		s-0.956,0.134-1.547,0.134c-1.213,0-2.088-0.297-2.624-0.892c-0.536-0.594-0.804-1.507-0.804-2.739v-4.314h-1.266v-1.469
		l1.607-1.137l0.933-2.198h2.365v2.097h2.568v2.707h-2.568v4.074C178.107,414.045,178.434,414.384,179.086,414.384z"/>
	<path fill="#818286" d="M196.243,406.476c0,0.838-0.255,1.557-0.767,2.157s-1.25,1.036-2.217,1.307v0.056
		c2.254,0.283,3.381,1.349,3.381,3.197c0,1.256-0.498,2.244-1.492,2.965s-2.376,1.081-4.144,1.081c-0.727,0-1.4-0.052-2.019-0.157
		c-0.619-0.104-1.289-0.295-2.01-0.572v-3.03c0.591,0.302,1.193,0.525,1.807,0.67c0.613,0.145,1.178,0.217,1.695,0.217
		c0.8,0,1.384-0.112,1.75-0.337c0.366-0.225,0.55-0.578,0.55-1.059c0-0.369-0.096-0.654-0.287-0.854s-0.499-0.351-0.924-0.452
		c-0.425-0.102-0.979-0.152-1.663-0.152h-0.831v-2.744h0.85c1.854,0,2.781-0.475,2.781-1.423c0-0.357-0.137-0.622-0.411-0.795
		c-0.274-0.172-0.642-0.258-1.104-0.258c-0.862,0-1.755,0.289-2.679,0.868l-1.515-2.439c0.714-0.492,1.446-0.844,2.194-1.053
		c0.749-0.21,1.606-0.314,2.573-0.314c1.398,0,2.494,0.277,3.289,0.832C195.846,404.738,196.243,405.502,196.243,406.476z"/>
	<path fill="#818286" d="M206.119,417.054h-3.705v-7.15c0-0.869,0.019-1.663,0.056-2.384c-0.228,0.277-0.511,0.566-0.85,0.868
		l-1.534,1.266l-1.894-2.328l4.638-3.778h3.289V417.054z"/>
</g>
</svg>
